<?xml version="1.0" encoding="UTF-8" standalone="no"?>
<svg
   viewBox="0 0 1280 320"
   width="1280"
   height="320"
   version="1.1"
   id="svg19"
   xmlns="http://www.w3.org/2000/svg"
   xmlns:svg="http://www.w3.org/2000/svg">
  <defs
     id="defs14">
    <linearGradient
       id="bg"
       x1="0%"
       y1="0%"
       x2="100%"
       y2="100%">
      <stop
         offset="0%"
         stop-color="#070b14"
         id="stop1" />
      <stop
         offset="100%"
         stop-color="#0a1018"
         id="stop2" />
    </linearGradient>
    <linearGradient
       id="wave1"
       x1="0%"
       y1="0%"
       x2="100%"
       y2="0%">
      <stop
         offset="0%"
         stop-color="#ff6d00"
         stop-opacity="0"
         id="stop3" />
      <stop
         offset="30%"
         stop-color="#ff6d00"
         stop-opacity="0.12"
         id="stop4" />
      <stop
         offset="50%"
         stop-color="#ff6d00"
         stop-opacity="0.18"
         id="stop5" />
      <stop
         offset="70%"
         stop-color="#ff6d00"
         stop-opacity="0.12"
         id="stop6" />
      <stop
         offset="100%"
         stop-color="#ff6d00"
         stop-opacity="0"
         id="stop7" />
    </linearGradient>
    <linearGradient
       id="wave2"
       x1="0%"
       y1="0%"
       x2="100%"
       y2="0%">
      <stop
         offset="0%"
         stop-color="#ff6d00"
         stop-opacity="0"
         id="stop8" />
      <stop
         offset="25%"
         stop-color="#ff6d00"
         stop-opacity="0.06"
         id="stop9" />
      <stop
         offset="50%"
         stop-color="#ff6d00"
         stop-opacity="0.10"
         id="stop10" />
      <stop
         offset="75%"
         stop-color="#ff6d00"
         stop-opacity="0.06"
         id="stop11" />
      <stop
         offset="100%"
         stop-color="#ff6d00"
         stop-opacity="0"
         id="stop12" />
    </linearGradient>
    <radialGradient
       id="glow"
       cx="50%"
       cy="50%"
       r="50%">
      <stop
         offset="0%"
         stop-color="#ff6d00"
         stop-opacity="0.06"
         id="stop13" />
      <stop
         offset="100%"
         stop-color="#ff6d00"
         stop-opacity="0"
         id="stop14" />
    </radialGradient>
    <pattern
       id="dots"
       width="32"
       height="32"
       patternUnits="userSpaceOnUse">
      <circle
         cx="16"
         cy="16"
         r="0.8"
         fill="#ff6d00"
         opacity="0.12"
         id="circle14" />
    </pattern>
  </defs>
  <!-- ======== BACKGROUND LAYER ======== -->
  <path
     id="rect14"
     style="fill:url(#bg)"
     d="M 0,0 H 1280 V 320 H 0 Z" />
  <path
     id="rect15"
     style="fill:url(#dots)"
     d="M 0,0 H 1280 V 320 H 0 Z" />
  <path
     id="ellipse15"
     style="fill:url(#glow)"
     d="M 1140,160 A 500,150 0 0 1 640,310 500,150 0 0 1 140,160 500,150 0 0 1 640,10 500,150 0 0 1 1140,160 Z" />
  <path
     d="M 0 180 C 80 120, 160 120, 240 180 C 320 240, 400 240, 480 180 C 560 120, 640 120, 720 180 C 800 240, 880 240, 960 180 C 1040 120, 1120 120, 1200 180 L 1280 180 L 1280 200 L 1200 200 C 1120 140, 1040 140, 960 200 C 880 260, 800 260, 720 200 C 640 140, 560 140, 480 200 C 400 260, 320 260, 240 200 C 160 140, 80 140, 0 200 Z"
     fill="url(#wave1)"
     id="path15" />
  <path
     d="M 0 170 C 60 140, 120 140, 180 170 C 240 200, 300 200, 360 170 C 420 140, 480 140, 540 170 C 600 200, 660 200, 720 170 C 780 140, 840 140, 900 170 C 960 200, 1020 200, 1080 170 C 1140 140, 1200 140, 1280 170 L 1280 185 C 1200 155, 1140 155, 1080 185 C 1020 215, 960 215, 900 185 C 840 155, 780 155, 720 185 C 660 215, 600 215, 540 185 C 480 155, 420 155, 360 185 C 300 215, 240 215, 180 185 C 120 155, 60 155, 0 185 Z"
     fill="url(#wave2)"
     id="path16" />
  <path
     d="M 0 160 C 160 100, 320 100, 480 160 C 640 220, 800 220, 960 160 C 1120 100, 1200 120, 1280 150 L 1280 158 C 1200 128, 1120 108, 960 168 C 800 228, 640 228, 480 168 C 320 108, 160 108, 0 168 Z"
     fill="#ff6d00"
     opacity="0.04"
     id="path17" />
  <path
     id="line17"
     style="opacity:0.08;stroke:#ff6d00;stroke-width:0.5"
     d="M 0,160 H 1280" />
  <!-- ======== FOREGROUND LAYER ======== -->
  <!-- Repo name -->
  <path
     d="m 364.24023,140.625 h 8.57813 l 4.67578,30.16406 4.25391,-19.86328 h 8.33203 l 4.18359,19.86328 4.7461,-30.16406 h 8.57812 L 400.45117,180 h -9.77344 L 385.89648,159.53906 381.15039,180 h -9.77344 z m 66.95704,20.88281 q -5.76563,0 -8.05079,1.47656 -2.28515,1.47657 -2.28515,5.0625 0,2.67188 1.58203,4.25391 1.58203,1.58203 4.28906,1.58203 4.07813,0 6.32813,-3.05859 2.25,-3.09375 2.25,-8.61328 v -0.70313 z m 14.34375,-3.97265 V 180 h -10.23047 v -4.39453 q -1.86328,2.60156 -4.78125,4.00781 -2.91797,1.40625 -6.4336,1.40625 -6.71484,0 -10.47656,-3.55078 -3.72656,-3.55078 -3.72656,-9.91406 0,-6.89063 4.46484,-10.16016 4.46485,-3.30469 13.81641,-3.30469 h 7.13672 v -1.72265 q 0,-2.4961 -1.82813,-3.76172 -1.79297,-1.30078 -5.30859,-1.30078 -3.69141,0 -7.17188,0.94922 -3.44531,0.91406 -7.20703,2.95312 v -8.78906 q 3.41016,-1.40625 6.92578,-2.07422 3.51563,-0.66797 7.45313,-0.66797 9.59765,0 13.46484,3.90234 3.90235,3.90235 3.90235,13.95704 z M 489.4707,140.625 476.95508,180 h -12.69141 l -12.51562,-39.375 h 10.4414 l 8.40235,30.72656 8.4375,-30.72656 z m 40.55469,37.44141 q -3.58594,1.47656 -7.3125,2.21484 -3.72656,0.73828 -7.875,0.73828 -9.87891,0 -15.11719,-5.27344 -5.20312,-5.30859 -5.20312,-15.25781 0,-9.63281 5.02734,-15.22266 5.02735,-5.58984 13.71094,-5.58984 8.75391,0 13.57031,5.20313 4.85156,5.16796 4.85156,14.58984 v 4.18359 h -26.68359 q 0.0352,4.64063 2.74219,6.92578 2.70703,2.28516 8.08594,2.28516 3.55078,0 6.99609,-1.01953 3.44531,-1.01953 7.20703,-3.23438 z m -8.71875,-22.14844 q -0.0703,-4.07813 -2.10937,-6.15235 -2.00391,-2.10937 -5.94141,-2.10937 -3.55078,0 -5.66016,2.17969 -2.10937,2.14453 -2.49609,6.11718 z m 18.44141,-30.62109 h 10.30078 v 28.72265 l 12.375,-13.39453 h 12.48047 l -14.90625,14.69531 15.75,24.67969 h -11.39063 l -10.79297,-18.42188 -3.51562,3.375 V 180 h -10.30078 z m 60.83984,36.21093 q -5.76562,0 -8.05078,1.47656 -2.28516,1.47657 -2.28516,5.0625 0,2.67188 1.58203,4.25391 1.58204,1.58203 4.28907,1.58203 4.07812,0 6.32812,-3.05859 2.25,-3.09375 2.25,-8.61328 v -0.70313 z m 14.34375,-3.97265 V 180 h -10.23047 v -4.39453 q -1.86328,2.60156 -4.78125,4.00781 -2.91797,1.40625 -6.43359,1.40625 -6.71485,0 -10.47656,-3.55078 -3.72657,-3.55078 -3.72657,-9.91406 0,-6.89063 4.46485,-10.16016 4.46484,-3.30469 13.8164,-3.30469 h 7.13672 v -1.72265 q 0,-2.4961 -1.82812,-3.76172 -1.79297,-1.30078 -5.3086,-1.30078 -3.6914,0 -7.17187,0.94922 -3.44531,0.91406 -7.20703,2.95312 v -8.78906 q 3.41015,-1.40625 6.92578,-2.07422 3.51562,-0.66797 7.45312,-0.66797 9.59766,0 13.46485,3.90234 3.90234,3.90235 3.90234,13.95704 z m 27.65234,-28.08985 V 140.625 h 13.46485 v 7.91016 h -13.46485 v 18.63281 q 0,2.63672 1.26563,3.79687 1.30078,1.125 4.28906,1.125 h 7.91016 V 180 h -8.64844 q -8.85937,0 -11.98828,-2.8125 -3.12891,-2.84766 -3.12891,-10.51172 V 148.53516 H 622.22852 V 140.625 h 10.05468 v -11.17969 z m 21.67579,25.10156 h 37.26562 v 9.45704 H 664.25977 Z M 743.55664,140.625 731.04102,180 h -12.69141 l -12.51563,-39.375 h 10.44141 l 8.40234,30.72656 8.4375,-30.72656 z m 23.46875,7.41797 q -3.69141,0 -5.80078,3.26953 -2.10938,3.23437 -2.10938,9.03516 0,5.80078 2.10938,9.07031 2.10937,3.23437 5.80078,3.23437 3.72656,0 5.83594,-3.23437 2.10937,-3.26953 2.10937,-9.07031 0,-5.80079 -2.10937,-9.03516 -2.10938,-3.26953 -5.83594,-3.26953 z m -18.21094,12.30469 q 0,-9.52735 4.92188,-15.08204 4.95703,-5.58984 13.28906,-5.58984 8.36719,0 13.28906,5.58984 4.95703,5.55469 4.95703,15.08204 0,9.52734 -4.95703,15.11718 -4.92187,5.55469 -13.28906,5.55469 -8.33203,0 -13.28906,-5.55469 -4.92188,-5.58984 -4.92188,-15.11718 z M 795.48633,140.625 h 20.39062 v 31.46484 h 12.79688 V 180 h -35.92969 v -7.91016 h 12.83203 v -23.55468 h -10.08984 z m 10.08984,-19.16016 h 10.30078 v 12.02344 h -10.30078 z m 61.78906,56.53125 q -2.60156,1.51172 -5.58984,2.25 -2.98828,0.77344 -6.43359,0.77344 -9.10547,0 -14.23828,-5.48437 -5.13282,-5.48438 -5.13282,-15.1875 0,-9.73829 5.16797,-15.22266 5.16797,-5.51953 14.27344,-5.51953 3.16406,0 6.08203,0.73828 2.95313,0.73828 5.87109,2.28516 v 9.42187 q -2.25,-1.93359 -4.95703,-2.95312 -2.67187,-1.05469 -5.55468,-1.05469 -5.02735,0 -7.73438,3.19922 -2.70703,3.19922 -2.70703,9.10547 0,5.90625 2.70703,9.07031 2.70703,3.16406 7.73438,3.16406 2.98828,0 5.58984,-0.98437 2.60156,-1.01954 4.92187,-3.0586 z m 43.78907,0.0703 q -3.58594,1.47656 -7.3125,2.21484 -3.72657,0.73828 -7.875,0.73828 -9.87891,0 -15.11719,-5.27344 -5.20313,-5.30859 -5.20313,-15.25781 0,-9.63281 5.02735,-15.22266 5.02734,-5.58984 13.71094,-5.58984 8.7539,0 13.57031,5.20313 4.85156,5.16796 4.85156,14.58984 v 4.18359 h -26.68359 q 0.0351,4.64063 2.74218,6.92578 2.70704,2.28516 8.08594,2.28516 3.55078,0 6.9961,-1.01953 3.44531,-1.01953 7.20703,-3.23438 z m -8.71875,-22.14844 q -0.0703,-4.07813 -2.10938,-6.15235 -2.0039,-2.10937 -5.9414,-2.10937 -3.55079,0 -5.66016,2.17969 -2.10938,2.14453 -2.49609,6.11718 z"
     id="text17"
     style="font-weight:700;font-size:72px;font-family:Menlo, 'SF Mono', 'JetBrains Mono', 'Fira Code', 'Cascadia Code', monospace;letter-spacing:-1;text-anchor:middle;fill:#fff3e0"
     aria-label="wavekat-voice" />
  <!-- Signature ribbon under "wavekat" -->
  <path
     d="M 360 195     C 387 186, 437 202, 497 190     C 547 180, 597 200, 647 188     C 665 183, 671 188, 675 185     L 672 190     C 667 194, 662 189, 645 195     C 595 208, 545 186, 495 198     C 435 210, 385 192, 363 200     Z"
     fill="#ff6d00"
     id="path18" />
  <!-- Description -->
  <path
     d="m 501.62646,224.25098 -1.22167,5.37011 h 2.45214 z m -1.58203,-2.37305 h 3.17286 L 506.75928,235 h -2.59278 l -0.80859,-3.24316 h -3.47168 L 499.09521,235 h -2.59277 z m 11.51661,2.28516 v -2.28516 h 7.81347 v 2.28516 h -2.61035 v 8.55175 h 2.61035 V 235 h -7.81347 v -2.28516 h 2.61035 v -8.55175 z m 31.57617,8.6748 2.31152,-10.95996 h 2.61035 L 544.93896,235 h -3.59472 l -3.12012,-13.12207 h 2.61035 z m 13.83691,-8.86816 q -0.99316,0 -1.45019,1.06347 -0.45704,1.05469 -0.45704,3.41895 0,2.35547 0.45704,3.41894 0.45703,1.05469 1.45019,1.05469 1.00195,0 1.45899,-1.05469 0.45703,-1.06347 0.45703,-3.41894 0,-2.36426 -0.45703,-3.41895 -0.45704,-1.06347 -1.45899,-1.06347 z m -4.60547,4.48242 q 0,-3.36621 1.16016,-5.08887 1.16894,-1.72266 3.44531,-1.72266 2.28516,0 3.44531,1.72266 1.16895,1.72266 1.16895,5.08887 0,3.35742 -1.16895,5.08008 -1.16015,1.72265 -3.44531,1.72265 -2.27637,0 -3.44531,-1.72265 -1.16016,-1.72266 -1.16016,-5.08008 z m 14.54004,-4.28906 v -2.28516 h 7.81348 v 2.28516 h -2.61035 v 8.55175 h 2.61035 V 235 h -7.81348 v -2.28516 h 2.61035 v -8.55175 z m 21.82617,10.45898 q -0.61523,0.31641 -1.29199,0.47461 -0.67676,0.1582 -1.42383,0.1582 -2.65429,0 -4.05175,-1.74902 -1.39747,-1.74902 -1.39747,-5.05371 0,-3.31348 1.39747,-5.0625 1.39746,-1.74903 4.05175,-1.74903 0.74707,0 1.43262,0.15821 0.68555,0.1582 1.2832,0.47461 v 2.88281 q -0.66797,-0.61523 -1.30078,-0.89648 -0.62402,-0.29004 -1.29199,-0.29004 -1.42383,0 -2.15332,1.13379 -0.7207,1.125 -0.7207,3.34863 0,2.21484 0.7207,3.34863 0.72949,1.125 2.15332,1.125 0.66797,0 1.29199,-0.28125 0.63281,-0.29004 1.30078,-0.90527 z M 602.72119,235 h -8.17383 v -13.12207 h 8.17383 v 2.28516 h -5.58105 v 2.83007 h 5.05371 v 2.28516 h -5.05371 v 3.43652 h 5.58105 z m 25.11621,-6.19629 q 0.38672,0.0791 0.66797,0.36914 0.29004,0.28125 0.70313,1.10742 L 631.58154,235 h -2.84765 l -1.58203,-3.31348 q -0.0703,-0.14062 -0.18457,-0.38672 -0.69434,-1.48535 -1.63477,-1.48535 h -0.82617 V 235 h -2.59278 v -13.12207 h 3.74414 q 2.53125,0 3.62989,0.89648 1.10742,0.89649 1.10742,2.91797 0,1.35352 -0.65918,2.15332 -0.65918,0.79981 -1.89844,0.95801 z m -3.33105,-4.74609 v 3.57715 h 1.22168 q 1.06347,0 1.52051,-0.41309 0.46582,-0.42188 0.46582,-1.37988 0,-0.95801 -0.45704,-1.3711 -0.45703,-0.41308 -1.52929,-0.41308 z M 644.23193,235 h -8.17382 v -13.12207 h 8.17382 v 2.28516 h -5.58105 v 2.83007 h 5.05371 v 2.28516 h -5.05371 v 3.43652 h 5.58105 z m 13.6875,-0.37793 q -0.61523,0.31641 -1.29199,0.47461 -0.67676,0.1582 -1.42383,0.1582 -2.65429,0 -4.05175,-1.74902 -1.39747,-1.74902 -1.39747,-5.05371 0,-3.31348 1.39747,-5.0625 1.39746,-1.74903 4.05175,-1.74903 0.74707,0 1.43262,0.15821 0.68555,0.1582 1.2832,0.47461 v 2.88281 q -0.66797,-0.61523 -1.30078,-0.89648 -0.62402,-0.29004 -1.29199,-0.29004 -1.42383,0 -2.15332,1.13379 -0.7207,1.125 -0.7207,3.34863 0,2.21484 0.7207,3.34863 0.72949,1.125 2.15332,1.125 0.66797,0 1.29199,-0.28125 0.63281,-0.29004 1.30078,-0.90527 z M 671.90576,235 h -8.17383 v -13.12207 h 8.17383 v 2.28516 h -5.58105 v 2.83007 h 5.05371 v 2.28516 h -5.05371 v 3.43652 h 5.58105 z m 8.20313,-10.94238 v 3.84961 h 1.06347 q 1.27442,0 1.78418,-0.43067 0.51856,-0.43066 0.51856,-1.49414 0,-1.06347 -0.51856,-1.49414 -0.50976,-0.43066 -1.78418,-0.43066 z m -2.59278,-2.17969 h 3.55957 q 2.71582,0 3.90235,0.9668 1.19531,0.96679 1.19531,3.13769 0,2.1709 -1.19531,3.1377 -1.18653,0.96679 -3.90235,0.96679 h -0.96679 V 235 h -2.59278 z M 696.64404,235 h -2.59277 v -10.85449 h -3.33106 v -2.26758 h 9.25489 v 2.26758 h -3.33106 z m 8.63379,-10.83691 v -2.28516 h 7.81348 v 2.28516 h -2.61035 v 8.55175 h 2.61035 V 235 h -7.81348 v -2.28516 h 2.61035 v -8.55175 z m 17.73926,-0.19336 q -0.99316,0 -1.4502,1.06347 -0.45703,1.05469 -0.45703,3.41895 0,2.35547 0.45703,3.41894 0.45704,1.05469 1.4502,1.05469 1.00195,0 1.45898,-1.05469 0.45704,-1.06347 0.45704,-3.41894 0,-2.36426 -0.45704,-3.41895 -0.45703,-1.06347 -1.45898,-1.06347 z m -4.60547,4.48242 q 0,-3.36621 1.16016,-5.08887 1.16894,-1.72266 3.44531,-1.72266 2.28516,0 3.44531,1.72266 1.16895,1.72266 1.16895,5.08887 0,3.35742 -1.16895,5.08008 -1.16015,1.72265 -3.44531,1.72265 -2.27637,0 -3.44531,-1.72265 -1.16016,-1.72266 -1.16016,-5.08008 z m 14.07422,-6.57422 h 2.78613 l 3.65625,9.53613 v -9.53613 h 2.28516 V 235 h -2.76856 L 734.771,225.46387 V 235 h -2.28516 z m 14.30273,2.28516 v -2.28516 h 7.81348 v 2.28516 h -2.61035 v 8.55175 h 2.61035 V 235 h -7.81348 v -2.28516 h 2.61036 v -8.55175 z m 16.80762,5.08007 q -1.95996,-0.74707 -2.6543,-1.56445 -0.69433,-0.82617 -0.69433,-2.21484 0,-1.78418 1.14258,-2.80371 1.14257,-1.01954 3.13769,-1.01954 0.90528,0 1.81055,0.21094 0.90527,0.20215 1.79297,0.60645 v 2.53125 q -0.83496,-0.58887 -1.69629,-0.89649 -0.86133,-0.30761 -1.70508,-0.30761 -0.94043,0 -1.44141,0.37793 -0.50097,0.37793 -0.50097,1.08105 0,0.54492 0.36035,0.90527 0.36914,0.35157 1.5293,0.78223 l 1.11621,0.42188 q 1.58203,0.58007 2.3291,1.53808 0.74707,0.95801 0.74707,2.41699 0,1.98633 -1.17774,2.97071 -1.16894,0.97558 -3.54199,0.97558 -0.97558,0 -1.95996,-0.2373 -0.97558,-0.22852 -1.88965,-0.68555 v -2.68066 q 1.03711,0.73828 2.00391,1.09863 0.97559,0.36035 1.9248,0.36035 0.95801,0 1.48536,-0.43066 0.52734,-0.43946 0.52734,-1.22168 0,-0.58887 -0.35156,-1.02832 -0.35157,-0.44824 -1.01953,-0.70313 z M 779.66553,235 h -2.59278 v -10.85449 h -3.33105 v -2.26758 h 9.25488 v 2.26758 h -3.33105 z"
     id="text18"
     style="font-weight:700;font-size:18px;font-family:Menlo, 'SF Mono', 'JetBrains Mono', 'Fira Code', 'Cascadia Code', monospace;letter-spacing:3;text-anchor:middle;fill:#9f7a56"
     aria-label="AI VOICE RECEPTIONIST" />
  <!-- ======== EDGE ACCENTS ======== -->
  <path
     id="rect18"
     style="opacity:0.15;fill:#ff6d00"
     d="M 0,0 H 1280 V 2 H 0 Z" />
  <path
     id="rect19"
     style="opacity:0.15;fill:#ff6d00"
     d="m 0,318 h 1280 v 2 H 0 Z" />
</svg>
