<?xml version="1.0" encoding="UTF-8" standalone="no"?>
<svg
   viewBox="0 0 1280 320"
   width="1280"
   height="320"
   version="1.1"
   id="svg19"
   xmlns="http://www.w3.org/2000/svg"
   xmlns:svg="http://www.w3.org/2000/svg">
  <defs
     id="defs14">
    <linearGradient
       id="bg"
       x1="0%"
       y1="0%"
       x2="100%"
       y2="100%">
      <stop
         offset="0%"
         stop-color="#070b14"
         id="stop1" />
      <stop
         offset="100%"
         stop-color="#0a1018"
         id="stop2" />
    </linearGradient>
    <linearGradient
       id="wave1"
       x1="0%"
       y1="0%"
       x2="100%"
       y2="0%">
      <stop
         offset="0%"
         stop-color="#00bcd4"
         stop-opacity="0"
         id="stop3" />
      <stop
         offset="30%"
         stop-color="#00bcd4"
         stop-opacity="0.12"
         id="stop4" />
      <stop
         offset="50%"
         stop-color="#00bcd4"
         stop-opacity="0.18"
         id="stop5" />
      <stop
         offset="70%"
         stop-color="#00bcd4"
         stop-opacity="0.12"
         id="stop6" />
      <stop
         offset="100%"
         stop-color="#00bcd4"
         stop-opacity="0"
         id="stop7" />
    </linearGradient>
    <linearGradient
       id="wave2"
       x1="0%"
       y1="0%"
       x2="100%"
       y2="0%">
      <stop
         offset="0%"
         stop-color="#00bcd4"
         stop-opacity="0"
         id="stop8" />
      <stop
         offset="25%"
         stop-color="#00bcd4"
         stop-opacity="0.06"
         id="stop9" />
      <stop
         offset="50%"
         stop-color="#00bcd4"
         stop-opacity="0.10"
         id="stop10" />
      <stop
         offset="75%"
         stop-color="#00bcd4"
         stop-opacity="0.06"
         id="stop11" />
      <stop
         offset="100%"
         stop-color="#00bcd4"
         stop-opacity="0"
         id="stop12" />
    </linearGradient>
    <radialGradient
       id="glow"
       cx="50%"
       cy="50%"
       r="50%">
      <stop
         offset="0%"
         stop-color="#00bcd4"
         stop-opacity="0.06"
         id="stop13" />
      <stop
         offset="100%"
         stop-color="#00bcd4"
         stop-opacity="0"
         id="stop14" />
    </radialGradient>
    <pattern
       id="dots"
       width="32"
       height="32"
       patternUnits="userSpaceOnUse">
      <circle
         cx="16"
         cy="16"
         r="0.8"
         fill="#00bcd4"
         opacity="0.12"
         id="circle14" />
    </pattern>
  </defs>
  <!-- ======== BACKGROUND LAYER ======== -->
  <path
     id="rect14"
     style="fill:url(#bg)"
     d="M 0,0 H 1280 V 320 H 0 Z" />
  <path
     id="rect15"
     style="fill:url(#dots)"
     d="M 0,0 H 1280 V 320 H 0 Z" />
  <path
     id="ellipse15"
     style="fill:url(#glow)"
     d="M 1140,160 A 500,150 0 0 1 640,310 500,150 0 0 1 140,160 500,150 0 0 1 640,10 500,150 0 0 1 1140,160 Z" />
  <path
     d="M 0 180 C 80 120, 160 120, 240 180 C 320 240, 400 240, 480 180 C 560 120, 640 120, 720 180 C 800 240, 880 240, 960 180 C 1040 120, 1120 120, 1200 180 L 1280 180 L 1280 200 L 1200 200 C 1120 140, 1040 140, 960 200 C 880 260, 800 260, 720 200 C 640 140, 560 140, 480 200 C 400 260, 320 260, 240 200 C 160 140, 80 140, 0 200 Z"
     fill="url(#wave1)"
     id="path15" />
  <path
     d="M 0 170 C 60 140, 120 140, 180 170 C 240 200, 300 200, 360 170 C 420 140, 480 140, 540 170 C 600 200, 660 200, 720 170 C 780 140, 840 140, 900 170 C 960 200, 1020 200, 1080 170 C 1140 140, 1200 140, 1280 170 L 1280 185 C 1200 155, 1140 155, 1080 185 C 1020 215, 960 215, 900 185 C 840 155, 780 155, 720 185 C 660 215, 600 215, 540 185 C 480 155, 420 155, 360 185 C 300 215, 240 215, 180 185 C 120 155, 60 155, 0 185 Z"
     fill="url(#wave2)"
     id="path16" />
  <path
     d="M 0 160 C 160 100, 320 100, 480 160 C 640 220, 800 220, 960 160 C 1120 100, 1200 120, 1280 150 L 1280 158 C 1200 128, 1120 108, 960 168 C 800 228, 640 228, 480 168 C 320 108, 160 108, 0 168 Z"
     fill="#00bcd4"
     opacity="0.04"
     id="path17" />
  <path
     id="line17"
     style="opacity:0.08;stroke:#00bcd4;stroke-width:0.5"
     d="M 0,160 H 1280" />
  <!-- ======== FOREGROUND LAYER ======== -->
  <!-- Repo name -->
  <path
     d="m 406.58789,140.625 h 8.57813 l 4.67578,30.16406 4.2539,-19.86328 h 8.33203 l 4.1836,19.86328 4.74609,-30.16406 h 8.57813 L 442.79883,180 h -9.77344 L 428.24414,159.53906 423.49805,180 h -9.77344 z m 66.95703,20.88281 q -5.76562,0 -8.05078,1.47656 -2.28516,1.47657 -2.28516,5.0625 0,2.67188 1.58204,4.25391 1.58203,1.58203 4.28906,1.58203 4.07812,0 6.32812,-3.05859 2.25,-3.09375 2.25,-8.61328 v -0.70313 z m 14.34375,-3.97265 V 180 H 477.6582 v -4.39453 q -1.86328,2.60156 -4.78125,4.00781 -2.91797,1.40625 -6.43359,1.40625 -6.71484,0 -10.47656,-3.55078 -3.72657,-3.55078 -3.72657,-9.91406 0,-6.89063 4.46485,-10.16016 4.46484,-3.30469 13.8164,-3.30469 h 7.13672 v -1.72265 q 0,-2.4961 -1.82812,-3.76172 -1.79297,-1.30078 -5.3086,-1.30078 -3.6914,0 -7.17187,0.94922 -3.44531,0.91406 -7.20703,2.95312 v -8.78906 q 3.41015,-1.40625 6.92578,-2.07422 3.51562,-0.66797 7.45312,-0.66797 9.59766,0 13.46485,3.90234 3.90234,3.90235 3.90234,13.95704 z M 531.81836,140.625 519.30273,180 h -12.6914 L 494.0957,140.625 h 10.44141 l 8.40234,30.72656 8.4375,-30.72656 z m 40.55469,37.44141 q -3.58594,1.47656 -7.3125,2.21484 -3.72657,0.73828 -7.875,0.73828 -9.87891,0 -15.11719,-5.27344 -5.20313,-5.30859 -5.20313,-15.25781 0,-9.63281 5.02735,-15.22266 5.02734,-5.58984 13.71094,-5.58984 8.7539,0 13.57031,5.20313 4.85156,5.16796 4.85156,14.58984 v 4.18359 H 547.3418 q 0.0351,4.64063 2.74218,6.92578 2.70704,2.28516 8.08594,2.28516 3.55078,0 6.9961,-1.01953 3.44531,-1.01953 7.20703,-3.23438 z m -8.71875,-22.14844 q -0.0703,-4.07813 -2.10938,-6.15235 -2.0039,-2.10937 -5.9414,-2.10937 -3.55079,0 -5.66016,2.17969 -2.10938,2.14453 -2.49609,6.11718 z m 18.4414,-30.62109 h 10.30078 v 28.72265 l 12.375,-13.39453 h 12.48047 L 602.3457,155.32031 618.0957,180 h -11.39062 l -10.79297,-18.42188 -3.51563,3.375 V 180 H 582.0957 Z m 60.83985,36.21093 q -5.76563,0 -8.05078,1.47656 -2.28516,1.47657 -2.28516,5.0625 0,2.67188 1.58203,4.25391 1.58203,1.58203 4.28906,1.58203 4.07813,0 6.32813,-3.05859 2.25,-3.09375 2.25,-8.61328 v -0.70313 z m 14.34375,-3.97265 V 180 h -10.23047 v -4.39453 q -1.86328,2.60156 -4.78125,4.00781 -2.91797,1.40625 -6.4336,1.40625 -6.71484,0 -10.47656,-3.55078 -3.72656,-3.55078 -3.72656,-9.91406 0,-6.89063 4.46484,-10.16016 4.46485,-3.30469 13.81641,-3.30469 h 7.13672 v -1.72265 q 0,-2.4961 -1.82813,-3.76172 -1.79297,-1.30078 -5.30859,-1.30078 -3.69141,0 -7.17188,0.94922 -3.44531,0.91406 -7.20703,2.95312 v -8.78906 q 3.41016,-1.40625 6.92578,-2.07422 3.51563,-0.66797 7.45313,-0.66797 9.59766,0 13.46484,3.90234 3.90235,3.90235 3.90235,13.95704 z m 27.65234,-28.08985 V 140.625 h 13.46484 v 7.91016 h -13.46484 v 18.63281 q 0,2.63672 1.26563,3.79687 1.30078,1.125 4.28906,1.125 h 7.91015 V 180 h -8.64843 q -8.85938,0 -11.98828,-2.8125 -3.12891,-2.84766 -3.12891,-10.51172 V 148.53516 H 664.57617 V 140.625 h 10.05469 v -11.17969 z m 21.67578,25.10156 h 37.26563 v 9.45704 H 706.60742 Z M 785.9043,140.625 773.38867,180 h -12.6914 l -12.51563,-39.375 h 10.44141 l 8.40234,30.72656 8.4375,-30.72656 z m 26.42187,20.88281 q -5.76562,0 -8.05078,1.47656 -2.28516,1.47657 -2.28516,5.0625 0,2.67188 1.58204,4.25391 1.58203,1.58203 4.28906,1.58203 4.07812,0 6.32812,-3.05859 2.25,-3.09375 2.25,-8.61328 v -0.70313 z m 14.34375,-3.97265 V 180 h -10.23047 v -4.39453 q -1.86328,2.60156 -4.78125,4.00781 -2.91797,1.40625 -6.43359,1.40625 -6.71484,0 -10.47656,-3.55078 -3.72657,-3.55078 -3.72657,-9.91406 0,-6.89063 4.46485,-10.16016 4.46484,-3.30469 13.8164,-3.30469 h 7.13672 v -1.72265 q 0,-2.4961 -1.82812,-3.76172 -1.79297,-1.30078 -5.3086,-1.30078 -3.6914,0 -7.17187,0.94922 -3.44531,0.91406 -7.20703,2.95312 v -8.78906 q 3.41015,-1.40625 6.92578,-2.07422 3.51562,-0.66797 7.45312,-0.66797 9.59766,0 13.46485,3.90234 3.90234,3.90235 3.90234,13.95704 z m 31.20313,-11.32032 v -20.91796 h 10.26562 V 180 h -10.26562 v -5.83594 q -1.65235,3.41016 -4.28907,5.13281 -2.60156,1.72266 -6.15234,1.72266 -6.75,0 -10.47656,-5.41406 -3.72656,-5.41406 -3.72656,-15.25781 0,-9.98438 3.76171,-15.32813 3.79688,-5.34375 10.79297,-5.34375 3.16407,0 5.66016,1.65234 2.53125,1.61719 4.42969,4.88672 z m -14.34375,14.20313 q 0,5.69531 1.89843,8.92969 1.89844,3.23437 5.23829,3.23437 3.33984,0 5.27343,-3.23437 1.9336,-3.23438 1.9336,-8.92969 0,-5.69531 -1.9336,-8.92969 -1.93359,-3.23437 -5.27343,-3.23437 -3.33985,0 -5.23829,3.23437 -1.89843,3.23438 -1.89843,8.92969 z"
     id="text17"
     style="font-weight:700;font-size:72px;font-family:Menlo, 'SF Mono', 'JetBrains Mono', 'Fira Code', 'Cascadia Code', monospace;letter-spacing:-1;text-anchor:middle;fill:#e0f7fa"
     aria-label="wavekat-vad" />
  <!-- Signature ribbon under "wavekat" -->
  <path
     d="M 403 195     C 430 186, 480 202, 540 190     C 590 180, 640 200, 690 188     C 708 183, 714 188, 718 185     L 715 190     C 710 194, 705 189, 688 195     C 638 208, 588 186, 538 198     C 478 210, 428 192, 406 200     Z"
     fill="#00bcd4"
     id="path18" />
  <!-- Description -->
  <path
     d="m 480.87109,232.83789 2.31153,-10.95996 h 2.61035 L 482.67285,235 h -3.59473 l -3.12011,-13.12207 h 2.61035 z m 13.83692,-8.86816 q -0.99317,0 -1.4502,1.06347 -0.45703,1.05469 -0.45703,3.41895 0,2.35547 0.45703,3.41894 0.45703,1.05469 1.4502,1.05469 1.00195,0 1.45898,-1.05469 0.45703,-1.06347 0.45703,-3.41894 0,-2.36426 -0.45703,-3.41895 -0.45703,-1.06347 -1.45898,-1.06347 z m -4.60547,4.48242 q 0,-3.36621 1.16016,-5.08887 1.16894,-1.72266 3.44531,-1.72266 2.28515,0 3.44531,1.72266 1.16895,1.72266 1.16895,5.08887 0,3.35742 -1.16895,5.08008 -1.16016,1.72265 -3.44531,1.72265 -2.27637,0 -3.44531,-1.72265 -1.16016,-1.72266 -1.16016,-5.08008 z m 14.54004,-4.28906 v -2.28516 h 7.81347 v 2.28516 h -2.61035 v 8.55175 h 2.61035 V 235 h -7.81347 v -2.28516 h 2.61035 v -8.55175 z m 21.82617,10.45898 q -0.61523,0.31641 -1.29199,0.47461 -0.67676,0.1582 -1.42383,0.1582 -2.6543,0 -4.05176,-1.74902 -1.39746,-1.74902 -1.39746,-5.05371 0,-3.31348 1.39746,-5.0625 1.39746,-1.74903 4.05176,-1.74903 0.74707,0 1.43262,0.15821 0.68554,0.1582 1.2832,0.47461 v 2.88281 q -0.66797,-0.61523 -1.30078,-0.89648 -0.62402,-0.29004 -1.29199,-0.29004 -1.42383,0 -2.15332,1.13379 -0.72071,1.125 -0.72071,3.34863 0,2.21484 0.72071,3.34863 0.72949,1.125 2.15332,1.125 0.66797,0 1.29199,-0.28125 0.63281,-0.29004 1.30078,-0.90527 z M 540.45508,235 h -8.17383 v -13.12207 h 8.17383 v 2.28516 h -5.58106 v 2.83007 h 5.05371 v 2.28516 h -5.05371 v 3.43652 h 5.58106 z m 23.4375,-10.74902 -1.22168,5.37011 h 2.45215 z m -1.58203,-2.37305 h 3.17285 L 569.02539,235 h -2.59277 l -0.8086,-3.24316 h -3.47168 L 561.36133,235 h -2.59278 z m 19.50586,12.74414 q -0.61524,0.31641 -1.292,0.47461 -0.67675,0.1582 -1.42382,0.1582 -2.6543,0 -4.05176,-1.74902 -1.39746,-1.74902 -1.39746,-5.05371 0,-3.31348 1.39746,-5.0625 1.39746,-1.74903 4.05176,-1.74903 0.74707,0 1.43261,0.15821 0.68555,0.1582 1.28321,0.47461 v 2.88281 q -0.66797,-0.61523 -1.30079,-0.89648 -0.62402,-0.29004 -1.29199,-0.29004 -1.42383,0 -2.15332,1.13379 -0.7207,1.125 -0.7207,3.34863 0,2.21484 0.7207,3.34863 0.72949,1.125 2.15332,1.125 0.66797,0 1.29199,-0.28125 0.63282,-0.29004 1.30079,-0.90527 z M 592.86719,235 h -2.59278 v -10.85449 h -3.33105 v -2.26758 h 9.25488 v 2.26758 h -3.33105 z m 8.63379,-10.83691 v -2.28516 h 7.81347 v 2.28516 h -2.61035 v 8.55175 h 2.61035 V 235 h -7.81347 v -2.28516 h 2.61035 v -8.55175 z m 17.73925,8.6748 2.31153,-10.95996 h 2.61035 L 621.04199,235 h -3.59472 l -3.12012,-13.12207 h 2.61035 z m 9.93457,-8.6748 v -2.28516 h 7.81348 v 2.28516 h -2.61035 v 8.55175 h 2.61035 V 235 h -7.81348 v -2.28516 h 2.61036 v -8.55175 z M 648.21484,235 h -2.59277 v -10.85449 h -3.33105 v -2.26758 h 9.25488 v 2.26758 h -3.33106 z m 7.19239,-13.12207 h 2.79492 l 2.54883,5.27344 2.55761,-5.27344 h 2.79493 l -4.05176,7.9541 V 235 h -2.59278 v -5.16797 z m 31.40039,2.33789 v 8.44629 h 0.70312 q 1.5293,0 2.17969,-0.95801 0.65039,-0.9668 0.65039,-3.27832 0,-2.29394 -0.65039,-3.25195 -0.65039,-0.95801 -2.17969,-0.95801 z m -2.59278,-2.33789 h 2.77735 q 3.21679,0 4.63183,1.53809 1.41504,1.52929 1.41504,5.00976 0,3.48926 -1.41504,5.03613 Q 690.20898,235 686.99219,235 h -2.77735 z M 706.49805,235 h -8.17383 v -13.12207 h 8.17383 v 2.28516 h -5.58106 v 2.83007 h 5.05371 v 2.28516 h -5.05371 v 3.43652 h 5.58106 z m 10.90136,0 h -2.59277 v -10.85449 h -3.33105 v -2.26758 h 9.25488 v 2.26758 h -3.33106 z m 16.77246,0 h -8.17382 v -13.12207 h 8.17382 v 2.28516 h -5.58105 v 2.83007 h 5.05371 v 2.28516 h -5.05371 v 3.43652 h 5.58105 z m 13.6875,-0.37793 q -0.61523,0.31641 -1.29199,0.47461 -0.67676,0.1582 -1.42383,0.1582 -2.65429,0 -4.05175,-1.74902 -1.39746,-1.74902 -1.39746,-5.05371 0,-3.31348 1.39746,-5.0625 1.39746,-1.74903 4.05175,-1.74903 0.74707,0 1.43262,0.15821 0.68555,0.1582 1.2832,0.47461 v 2.88281 q -0.66796,-0.61523 -1.30078,-0.89648 -0.62402,-0.29004 -1.29199,-0.29004 -1.42383,0 -2.15332,1.13379 -0.7207,1.125 -0.7207,3.34863 0,2.21484 0.7207,3.34863 0.72949,1.125 2.15332,1.125 0.66797,0 1.29199,-0.28125 0.63282,-0.29004 1.30078,-0.90527 z M 758.91016,235 h -2.59278 v -10.85449 h -3.33105 v -2.26758 h 9.25488 v 2.26758 h -3.33105 z m 8.63379,-10.83691 v -2.28516 h 7.81347 v 2.28516 h -2.61035 v 8.55175 h 2.61035 V 235 h -7.81347 v -2.28516 h 2.61035 v -8.55175 z m 17.73925,-0.19336 q -0.99316,0 -1.45019,1.06347 -0.45703,1.05469 -0.45703,3.41895 0,2.35547 0.45703,3.41894 0.45703,1.05469 1.45019,1.05469 1.00196,0 1.45899,-1.05469 0.45703,-1.06347 0.45703,-3.41894 0,-2.36426 -0.45703,-3.41895 -0.45703,-1.06347 -1.45899,-1.06347 z m -4.60547,4.48242 q 0,-3.36621 1.16016,-5.08887 1.16895,-1.72266 3.44531,-1.72266 2.28516,0 3.44532,1.72266 1.16894,1.72266 1.16894,5.08887 0,3.35742 -1.16894,5.08008 -1.16016,1.72265 -3.44532,1.72265 -2.27636,0 -3.44531,-1.72265 -1.16016,-1.72266 -1.16016,-5.08008 z m 14.07422,-6.57422 h 2.78614 l 3.65625,9.53613 v -9.53613 h 2.28515 V 235 h -2.76855 l -3.67383,-9.53613 V 235 h -2.28516 z"
     id="text18"
     style="font-weight:700;font-size:18px;font-family:Menlo, 'SF Mono', 'JetBrains Mono', 'Fira Code', 'Cascadia Code', monospace;letter-spacing:3;text-anchor:middle;fill:#5f8f8a"
     aria-label="VOICE ACTIVITY DETECTION" />
  <!-- ======== EDGE ACCENTS ======== -->
  <path
     id="rect18"
     style="opacity:0.15;fill:#00bcd4"
     d="M 0,0 H 1280 V 2 H 0 Z" />
  <path
     id="rect19"
     style="opacity:0.15;fill:#00bcd4"
     d="m 0,318 h 1280 v 2 H 0 Z" />
</svg>
