<?xml version="1.0" encoding="UTF-8" standalone="no"?>
<svg
   viewBox="0 0 1280 640"
   width="1280"
   height="640"
   version="1.1"
   id="svg19"
   xmlns="http://www.w3.org/2000/svg"
   xmlns:svg="http://www.w3.org/2000/svg">
  <defs
     id="defs14">
    <linearGradient
       id="bg"
       x1="0%"
       y1="0%"
       x2="100%"
       y2="100%">
      <stop
         offset="0%"
         stop-color="#070b14"
         id="stop1" />
      <stop
         offset="100%"
         stop-color="#0a1018"
         id="stop2" />
    </linearGradient>
    <linearGradient
       id="wave1"
       x1="0%"
       y1="0%"
       x2="100%"
       y2="0%">
      <stop
         offset="0%"
         stop-color="#7c4dff"
         stop-opacity="0"
         id="stop3" />
      <stop
         offset="30%"
         stop-color="#7c4dff"
         stop-opacity="0.12"
         id="stop4" />
      <stop
         offset="50%"
         stop-color="#7c4dff"
         stop-opacity="0.18"
         id="stop5" />
      <stop
         offset="70%"
         stop-color="#7c4dff"
         stop-opacity="0.12"
         id="stop6" />
      <stop
         offset="100%"
         stop-color="#7c4dff"
         stop-opacity="0"
         id="stop7" />
    </linearGradient>
    <linearGradient
       id="wave2"
       x1="0%"
       y1="0%"
       x2="100%"
       y2="0%">
      <stop
         offset="0%"
         stop-color="#7c4dff"
         stop-opacity="0"
         id="stop8" />
      <stop
         offset="25%"
         stop-color="#7c4dff"
         stop-opacity="0.06"
         id="stop9" />
      <stop
         offset="50%"
         stop-color="#7c4dff"
         stop-opacity="0.10"
         id="stop10" />
      <stop
         offset="75%"
         stop-color="#7c4dff"
         stop-opacity="0.06"
         id="stop11" />
      <stop
         offset="100%"
         stop-color="#7c4dff"
         stop-opacity="0"
         id="stop12" />
    </linearGradient>
    <radialGradient
       id="glow"
       cx="50%"
       cy="50%"
       r="50%">
      <stop
         offset="0%"
         stop-color="#7c4dff"
         stop-opacity="0.06"
         id="stop13" />
      <stop
         offset="100%"
         stop-color="#7c4dff"
         stop-opacity="0"
         id="stop14" />
    </radialGradient>
    <pattern
       id="dots"
       width="32"
       height="32"
       patternUnits="userSpaceOnUse">
      <circle
         cx="16"
         cy="16"
         r="0.8"
         fill="#7c4dff"
         opacity="0.12"
         id="circle14" />
    </pattern>
  </defs>
  <!-- ======== BACKGROUND LAYER ======== -->
  <path
     id="rect14"
     style="fill:url(#bg)"
     d="M 0,0 H 1280 V 640 H 0 Z" />
  <path
     id="rect15"
     style="fill:url(#dots)"
     d="M 0,0 H 1280 V 640 H 0 Z" />
  <path
     id="ellipse15"
     style="fill:url(#glow)"
     d="M 1140,320 A 500,300 0 0 1 640,620 500,300 0 0 1 140,320 500,300 0 0 1 640,20 500,300 0 0 1 1140,320 Z" />
  <path
     d="M 0 340 C 80 280, 160 280, 240 340 C 320 400, 400 400, 480 340 C 560 280, 640 280, 720 340 C 800 400, 880 400, 960 340 C 1040 280, 1120 280, 1200 340 L 1280 340 L 1280 360 L 1200 360 C 1120 300, 1040 300, 960 360 C 880 420, 800 420, 720 360 C 640 300, 560 300, 480 360 C 400 420, 320 420, 240 360 C 160 300, 80 300, 0 360 Z"
     fill="url(#wave1)"
     id="path15" />
  <path
     d="M 0 330 C 60 300, 120 300, 180 330 C 240 360, 300 360, 360 330 C 420 300, 480 300, 540 330 C 600 360, 660 360, 720 330 C 780 300, 840 300, 900 330 C 960 360, 1020 360, 1080 330 C 1140 300, 1200 300, 1280 330 L 1280 345 C 1200 315, 1140 315, 1080 345 C 1020 375, 960 375, 900 345 C 840 315, 780 315, 720 345 C 660 375, 600 375, 540 345 C 480 315, 420 315, 360 345 C 300 375, 240 375, 180 345 C 120 315, 60 315, 0 345 Z"
     fill="url(#wave2)"
     id="path16" />
  <path
     d="M 0 320 C 160 260, 320 260, 480 320 C 640 380, 800 380, 960 320 C 1120 260, 1200 280, 1280 310 L 1280 318 C 1200 288, 1120 268, 960 328 C 800 388, 640 388, 480 328 C 320 268, 160 268, 0 328 Z"
     fill="#7c4dff"
     opacity="0.04"
     id="path17" />
  <path
     id="line17"
     style="opacity:0.08;stroke:#7c4dff;stroke-width:0.5"
     d="M 0,320 H 1280" />
  <!-- ======== FOREGROUND LAYER ======== -->
  <!-- Repo name -->
  <path
     d="m 385.41406,300.625 h 8.57813 l 4.67578,30.16406 4.2539,-19.86328 h 8.33204 l 4.18359,19.86328 4.74609,-30.16406 h 8.57813 L 421.625,340 h -9.77344 L 407.07031,319.53906 402.32422,340 h -9.77344 z m 66.95703,20.88281 q -5.76562,0 -8.05078,1.47656 -2.28515,1.47657 -2.28515,5.0625 0,2.67188 1.58203,4.25391 1.58203,1.58203 4.28906,1.58203 4.07812,0 6.32812,-3.05859 2.25,-3.09375 2.25,-8.61328 v -0.70313 z m 14.34375,-3.97265 V 340 h -10.23047 v -4.39453 q -1.86328,2.60156 -4.78125,4.00781 -2.91796,1.40625 -6.43359,1.40625 -6.71484,0 -10.47656,-3.55078 -3.72656,-3.55078 -3.72656,-9.91406 0,-6.89063 4.46484,-10.16016 4.46484,-3.30469 13.81641,-3.30469 h 7.13671 v -1.72265 q 0,-2.4961 -1.82812,-3.76172 -1.79297,-1.30078 -5.30859,-1.30078 -3.69141,0 -7.17188,0.94922 -3.44531,0.91406 -7.20703,2.95312 v -8.78906 q 3.41016,-1.40625 6.92578,-2.07422 3.51563,-0.66797 7.45313,-0.66797 9.59765,0 13.46484,3.90234 3.90234,3.90235 3.90234,13.95704 z M 510.64453,300.625 498.12891,340 H 485.4375 l -12.51563,-39.375 h 10.44141 l 8.40234,30.72656 8.4375,-30.72656 z m 40.55469,37.44141 q -3.58594,1.47656 -7.3125,2.21484 -3.72656,0.73828 -7.875,0.73828 -9.87891,0 -15.11719,-5.27344 -5.20312,-5.30859 -5.20312,-15.25781 0,-9.63281 5.02734,-15.22266 5.02734,-5.58984 13.71094,-5.58984 8.7539,0 13.57031,5.20313 4.85156,5.16796 4.85156,14.58984 v 4.18359 h -26.68359 q 0.0352,4.64063 2.74219,6.92578 2.70703,2.28516 8.08593,2.28516 3.55078,0 6.9961,-1.01953 3.44531,-1.01953 7.20703,-3.23438 z m -8.71875,-22.14844 q -0.0703,-4.07813 -2.10938,-6.15235 -2.0039,-2.10937 -5.9414,-2.10937 -3.55078,0 -5.66016,2.17969 -2.10937,2.14453 -2.49609,6.11718 z m 18.4414,-30.6211 h 10.30079 v 28.72266 l 12.375,-13.39453 h 12.48046 l -14.90625,14.69531 15.75,24.67969 h -11.39062 l -10.79297,-18.42188 -3.51562,3.375 V 340 h -10.30079 z m 60.83985,36.21094 q -5.76563,0 -8.05078,1.47656 -2.28516,1.47657 -2.28516,5.0625 0,2.67188 1.58203,4.25391 1.58203,1.58203 4.28906,1.58203 4.07813,0 6.32813,-3.05859 2.25,-3.09375 2.25,-8.61328 v -0.70313 z m 14.34375,-3.97265 V 340 H 625.875 v -4.39453 q -1.86328,2.60156 -4.78125,4.00781 -2.91797,1.40625 -6.43359,1.40625 -6.71485,0 -10.47657,-3.55078 -3.72656,-3.55078 -3.72656,-9.91406 0,-6.89063 4.46484,-10.16016 4.46485,-3.30469 13.81641,-3.30469 h 7.13672 v -1.72265 q 0,-2.4961 -1.82813,-3.76172 -1.79296,-1.30078 -5.30859,-1.30078 -3.69141,0 -7.17187,0.94922 -3.44532,0.91406 -7.20704,2.95312 v -8.78906 q 3.41016,-1.40625 6.92579,-2.07422 3.51562,-0.66797 7.45312,-0.66797 9.59766,0 13.46484,3.90234 3.90235,3.90235 3.90235,13.95704 z m 27.65234,-28.08985 V 300.625 h 13.46485 v 7.91016 h -13.46485 v 18.63281 q 0,2.63672 1.26563,3.79687 1.30078,1.125 4.28906,1.125 h 7.91016 V 340 h -8.64844 q -8.85938,0 -11.98828,-2.8125 -3.12891,-2.84766 -3.12891,-10.51172 V 308.53516 H 643.40234 V 300.625 h 10.05469 v -11.17969 z m 21.67578,25.10156 h 37.26563 v 9.45704 h -37.26563 z m 63.01953,-25.10156 V 300.625 h 13.46485 v 7.91016 h -13.46485 v 18.63281 q 0,2.63672 1.26563,3.79687 1.30078,1.125 4.28906,1.125 h 7.91016 V 340 h -8.64844 q -8.85937,0 -11.98828,-2.8125 -3.12891,-2.84766 -3.12891,-10.51172 V 308.53516 H 728.09766 V 300.625 h 10.05468 v -11.17969 z m 23.71485,36.8086 V 300.625 h 10.30078 v 24.04687 q 0,4.25391 1.19531,6.08204 1.19531,1.82812 3.97266,1.82812 2.77734,0 4.32422,-2.46094 1.58203,-2.46093 1.58203,-6.89062 V 300.625 h 10.30078 V 340 h -10.30078 v -5.83594 q -1.08985,3.26953 -3.72656,5.0625 -2.60157,1.79297 -6.29297,1.79297 -5.625,0 -8.50782,-3.72656 -2.84765,-3.72656 -2.84765,-11.03906 z m 77.1875,-14.76563 q -1.6875,-1.54687 -3.97266,-2.32031 -2.25,-0.77344 -4.95703,-0.77344 -3.26953,0 -5.73047,1.16016 -2.42578,1.125 -3.76172,3.30468 -0.84375,1.33594 -1.19531,3.23438 -0.31641,1.89844 -0.31641,5.76562 V 340 h -10.30078 v -39.375 h 10.30078 v 6.11719 q 1.51172,-3.375 4.64063,-5.20313 3.12891,-1.86328 7.3125,-1.86328 2.10937,0 4.11328,0.52734 2.03906,0.49219 3.86719,1.47657 z m 39.53515,2.95313 V 340 h -10.23046 v -23.97656 q 0,-4.28907 -1.23047,-6.11719 -1.19532,-1.86328 -3.9375,-1.86328 -2.77735,0 -4.39453,2.49609 -1.58204,2.4961 -1.58204,6.92578 V 340 h -10.23046 v -39.375 h 10.23046 v 5.90625 q 1.08985,-3.26953 3.72657,-5.0625 2.63672,-1.79297 6.36328,-1.79297 5.58984,0 8.4375,3.72656 2.84765,3.69141 2.84765,11.03907 z"
     id="text17"
     style="font-weight:700;font-size:72px;font-family:Menlo, 'SF Mono', 'JetBrains Mono', 'Fira Code', 'Cascadia Code', monospace;letter-spacing:-1;text-anchor:middle;fill:#ede7f6"
     aria-label="wavekat-turn" />
  <!-- Signature ribbon under "wavekat" -->
  <path
     d="M 382 355     C 409 346, 459 362, 519 350     C 569 340, 619 360, 669 348     C 687 343, 693 348, 697 345     L 694 350     C 689 354, 684 349, 667 355     C 617 368, 567 346, 517 358     C 457 370, 407 352, 385 360     Z"
     fill="#7c4dff"
     id="path18" />
  <!-- Description -->
  <path
     d="m 551.35645,395 h -2.59278 v -10.85449 h -3.33105 v -2.26758 h 9.25488 v 2.26758 h -3.33105 z m 8.05371,-4.84277 v -8.2793 h 2.59277 v 8.92969 q 0,0.98437 0.50098,1.54687 0.50097,0.55371 1.38867,0.55371 0.88769,0 1.38867,-0.55371 0.50098,-0.5625 0.50098,-1.54687 v -8.92969 h 2.59277 v 8.2793 q 0,2.67187 -1.06348,3.88476 -1.06347,1.21289 -3.41894,1.21289 -2.34668,0 -3.41895,-1.21289 -1.06347,-1.21289 -1.06347,-3.88476 z m 19.99804,-1.35352 q 0.38672,0.0791 0.66797,0.36914 0.29004,0.28125 0.70313,1.10742 L 583.15234,395 h -2.84765 l -1.58203,-3.31348 q -0.0703,-0.14062 -0.18457,-0.38672 -0.69434,-1.48535 -1.63477,-1.48535 h -0.82617 V 395 h -2.59278 v -13.12207 h 3.74415 q 2.53125,0 3.62988,0.89648 1.10742,0.89649 1.10742,2.91797 0,1.35352 -0.65918,2.15332 -0.65918,0.79981 -1.89844,0.95801 z m -3.33105,-4.74609 v 3.57715 h 1.22168 q 1.06347,0 1.52051,-0.41309 0.46582,-0.42188 0.46582,-1.37988 0,-0.95801 -0.45704,-1.3711 -0.45703,-0.41308 -1.52929,-0.41308 z m 11.12109,-2.17969 h 2.78613 l 3.65625,9.53613 v -9.53613 h 2.28516 V 395 h -2.76855 l -3.67383,-9.53613 V 395 h -2.28516 z m 30.42481,2.33789 v 8.44629 h 0.70312 q 1.5293,0 2.17969,-0.95801 0.65039,-0.9668 0.65039,-3.27832 0,-2.29394 -0.65039,-3.25195 -0.65039,-0.95801 -2.17969,-0.95801 z m -2.59278,-2.33789 h 2.77735 q 3.21679,0 4.63183,1.53809 1.41504,1.52929 1.41504,5.00976 0,3.48926 -1.41504,5.03613 Q 621.02441,395 617.80762,395 h -2.77735 z M 637.31348,395 h -8.17383 v -13.12207 h 8.17383 v 2.28516 h -5.58106 v 2.83007 h 5.05371 v 2.28516 h -5.05371 v 3.43652 h 5.58106 z m 10.90136,0 h -2.59277 v -10.85449 h -3.33105 v -2.26758 h 9.25488 v 2.26758 h -3.33106 z m 16.77246,0 h -8.17382 v -13.12207 h 8.17382 v 2.28516 h -5.58105 v 2.83007 h 5.05371 v 2.28516 h -5.05371 v 3.43652 h 5.58105 z m 13.6875,-0.37793 q -0.61523,0.31641 -1.29199,0.47461 -0.67676,0.1582 -1.42383,0.1582 -2.65429,0 -4.05175,-1.74902 -1.39746,-1.74902 -1.39746,-5.05371 0,-3.31348 1.39746,-5.0625 1.39746,-1.74903 4.05175,-1.74903 0.74707,0 1.43262,0.15821 0.68555,0.1582 1.2832,0.47461 v 2.88281 q -0.66796,-0.61523 -1.30078,-0.89648 -0.62402,-0.29004 -1.29199,-0.29004 -1.42383,0 -2.15332,1.13379 -0.7207,1.125 -0.7207,3.34863 0,2.21484 0.7207,3.34863 0.72949,1.125 2.15332,1.125 0.66797,0 1.29199,-0.28125 0.63282,-0.29004 1.30078,-0.90527 z M 689.72559,395 h -2.59278 v -10.85449 h -3.33105 v -2.26758 h 9.25488 v 2.26758 h -3.33105 z m 8.63378,-10.83691 v -2.28516 h 7.81348 v 2.28516 h -2.61035 v 8.55175 h 2.61035 V 395 h -7.81348 v -2.28516 h 2.61036 v -8.55175 z m 17.73926,-0.19336 q -0.99316,0 -1.45019,1.06347 -0.45703,1.05469 -0.45703,3.41895 0,2.35547 0.45703,3.41894 0.45703,1.05469 1.45019,1.05469 1.00196,0 1.45899,-1.05469 0.45703,-1.06347 0.45703,-3.41894 0,-2.36426 -0.45703,-3.41895 -0.45703,-1.06347 -1.45899,-1.06347 z m -4.60547,4.48242 q 0,-3.36621 1.16016,-5.08887 1.16895,-1.72266 3.44531,-1.72266 2.28516,0 3.44532,1.72266 1.16894,1.72266 1.16894,5.08887 0,3.35742 -1.16894,5.08008 -1.16016,1.72265 -3.44532,1.72265 -2.27636,0 -3.44531,-1.72265 -1.16016,-1.72266 -1.16016,-5.08008 z m 14.07422,-6.57422 h 2.78614 l 3.65625,9.53613 v -9.53613 h 2.28515 V 395 h -2.76855 l -3.67383,-9.53613 V 395 h -2.28516 z"
     id="text18"
     style="font-weight:700;font-size:18px;font-family:Menlo, 'SF Mono', 'JetBrains Mono', 'Fira Code', 'Cascadia Code', monospace;letter-spacing:3;text-anchor:middle;fill:#7a6b9f"
     aria-label="TURN DETECTION" />
  <!-- ======== EDGE ACCENTS ======== -->
  <path
     id="rect18"
     style="opacity:0.15;fill:#7c4dff"
     d="M 0,0 H 1280 V 2 H 0 Z" />
  <path
     id="rect19"
     style="opacity:0.15;fill:#7c4dff"
     d="m 0,638 h 1280 v 2 H 0 Z" />
</svg>
