<?xml version="1.0" encoding="UTF-8" standalone="no"?>
<svg
   viewBox="0 0 1280 640"
   width="1280"
   height="640"
   version="1.1"
   id="svg19"
   xmlns="http://www.w3.org/2000/svg"
   xmlns:svg="http://www.w3.org/2000/svg">
  <defs
     id="defs14">
    <linearGradient
       id="bg"
       x1="0%"
       y1="0%"
       x2="100%"
       y2="100%">
      <stop
         offset="0%"
         stop-color="#070b14"
         id="stop1" />
      <stop
         offset="100%"
         stop-color="#0a1018"
         id="stop2" />
    </linearGradient>
    <linearGradient
       id="wave1"
       x1="0%"
       y1="0%"
       x2="100%"
       y2="0%">
      <stop
         offset="0%"
         stop-color="#ff4081"
         stop-opacity="0"
         id="stop3" />
      <stop
         offset="30%"
         stop-color="#ff4081"
         stop-opacity="0.12"
         id="stop4" />
      <stop
         offset="50%"
         stop-color="#ff4081"
         stop-opacity="0.18"
         id="stop5" />
      <stop
         offset="70%"
         stop-color="#ff4081"
         stop-opacity="0.12"
         id="stop6" />
      <stop
         offset="100%"
         stop-color="#ff4081"
         stop-opacity="0"
         id="stop7" />
    </linearGradient>
    <linearGradient
       id="wave2"
       x1="0%"
       y1="0%"
       x2="100%"
       y2="0%">
      <stop
         offset="0%"
         stop-color="#ff4081"
         stop-opacity="0"
         id="stop8" />
      <stop
         offset="25%"
         stop-color="#ff4081"
         stop-opacity="0.06"
         id="stop9" />
      <stop
         offset="50%"
         stop-color="#ff4081"
         stop-opacity="0.10"
         id="stop10" />
      <stop
         offset="75%"
         stop-color="#ff4081"
         stop-opacity="0.06"
         id="stop11" />
      <stop
         offset="100%"
         stop-color="#ff4081"
         stop-opacity="0"
         id="stop12" />
    </linearGradient>
    <radialGradient
       id="glow"
       cx="50%"
       cy="50%"
       r="50%">
      <stop
         offset="0%"
         stop-color="#ff4081"
         stop-opacity="0.06"
         id="stop13" />
      <stop
         offset="100%"
         stop-color="#ff4081"
         stop-opacity="0"
         id="stop14" />
    </radialGradient>
    <pattern
       id="dots"
       width="32"
       height="32"
       patternUnits="userSpaceOnUse">
      <circle
         cx="16"
         cy="16"
         r="0.8"
         fill="#ff4081"
         opacity="0.12"
         id="circle14" />
    </pattern>
  </defs>
  <!-- ======== BACKGROUND LAYER ======== -->
  <path
     id="rect14"
     style="fill:url(#bg)"
     d="M 0,0 H 1280 V 640 H 0 Z" />
  <path
     id="rect15"
     style="fill:url(#dots)"
     d="M 0,0 H 1280 V 640 H 0 Z" />
  <path
     id="ellipse15"
     style="fill:url(#glow)"
     d="M 1140,320 A 500,300 0 0 1 640,620 500,300 0 0 1 140,320 500,300 0 0 1 640,20 500,300 0 0 1 1140,320 Z" />
  <path
     d="M 0 340 C 80 280, 160 280, 240 340 C 320 400, 400 400, 480 340 C 560 280, 640 280, 720 340 C 800 400, 880 400, 960 340 C 1040 280, 1120 280, 1200 340 L 1280 340 L 1280 360 L 1200 360 C 1120 300, 1040 300, 960 360 C 880 420, 800 420, 720 360 C 640 300, 560 300, 480 360 C 400 420, 320 420, 240 360 C 160 300, 80 300, 0 360 Z"
     fill="url(#wave1)"
     id="path15" />
  <path
     d="M 0 330 C 60 300, 120 300, 180 330 C 240 360, 300 360, 360 330 C 420 300, 480 300, 540 330 C 600 360, 660 360, 720 330 C 780 300, 840 300, 900 330 C 960 360, 1020 360, 1080 330 C 1140 300, 1200 300, 1280 330 L 1280 345 C 1200 315, 1140 315, 1080 345 C 1020 375, 960 375, 900 345 C 840 315, 780 315, 720 345 C 660 375, 600 375, 540 345 C 480 315, 420 315, 360 345 C 300 375, 240 375, 180 345 C 120 315, 60 315, 0 345 Z"
     fill="url(#wave2)"
     id="path16" />
  <path
     d="M 0 320 C 160 260, 320 260, 480 320 C 640 380, 800 380, 960 320 C 1120 260, 1200 280, 1280 310 L 1280 318 C 1200 288, 1120 268, 960 328 C 800 388, 640 388, 480 328 C 320 268, 160 268, 0 328 Z"
     fill="#ff4081"
     opacity="0.04"
     id="path17" />
  <path
     id="line17"
     style="opacity:0.08;stroke:#ff4081;stroke-width:0.5"
     d="M 0,320 H 1280" />
  <!-- ======== FOREGROUND LAYER ======== -->
  <!-- Repo name -->
  <path
     d="m 406.58789,300.625 h 8.57813 l 4.67578,30.16406 4.2539,-19.86328 h 8.33203 l 4.1836,19.86328 4.74609,-30.16406 h 8.57813 L 442.79883,340 h -9.77344 L 428.24414,319.53906 423.49805,340 h -9.77344 z m 66.95703,20.88281 q -5.76562,0 -8.05078,1.47656 -2.28516,1.47657 -2.28516,5.0625 0,2.67188 1.58204,4.25391 1.58203,1.58203 4.28906,1.58203 4.07812,0 6.32812,-3.05859 2.25,-3.09375 2.25,-8.61328 v -0.70313 z m 14.34375,-3.97265 V 340 H 477.6582 v -4.39453 q -1.86328,2.60156 -4.78125,4.00781 -2.91797,1.40625 -6.43359,1.40625 -6.71484,0 -10.47656,-3.55078 -3.72657,-3.55078 -3.72657,-9.91406 0,-6.89063 4.46485,-10.16016 4.46484,-3.30469 13.8164,-3.30469 h 7.13672 v -1.72265 q 0,-2.4961 -1.82812,-3.76172 -1.79297,-1.30078 -5.3086,-1.30078 -3.6914,0 -7.17187,0.94922 -3.44531,0.91406 -7.20703,2.95312 v -8.78906 q 3.41015,-1.40625 6.92578,-2.07422 3.51562,-0.66797 7.45312,-0.66797 9.59766,0 13.46485,3.90234 3.90234,3.90235 3.90234,13.95704 z M 531.81836,300.625 519.30273,340 h -12.6914 L 494.0957,300.625 h 10.44141 l 8.40234,30.72656 8.4375,-30.72656 z m 40.55469,37.44141 q -3.58594,1.47656 -7.3125,2.21484 -3.72657,0.73828 -7.875,0.73828 -9.87891,0 -15.11719,-5.27344 -5.20313,-5.30859 -5.20313,-15.25781 0,-9.63281 5.02735,-15.22266 5.02734,-5.58984 13.71094,-5.58984 8.7539,0 13.57031,5.20313 4.85156,5.16796 4.85156,14.58984 v 4.18359 H 547.3418 q 0.0351,4.64063 2.74218,6.92578 2.70704,2.28516 8.08594,2.28516 3.55078,0 6.9961,-1.01953 3.44531,-1.01953 7.20703,-3.23438 z m -8.71875,-22.14844 q -0.0703,-4.07813 -2.10938,-6.15235 -2.0039,-2.10937 -5.9414,-2.10937 -3.55079,0 -5.66016,2.17969 -2.10938,2.14453 -2.49609,6.11718 z m 18.4414,-30.6211 h 10.30078 v 28.72266 l 12.375,-13.39453 h 12.48047 L 602.3457,315.32031 618.0957,340 h -11.39062 l -10.79297,-18.42188 -3.51563,3.375 V 340 H 582.0957 Z m 60.83985,36.21094 q -5.76563,0 -8.05078,1.47656 -2.28516,1.47657 -2.28516,5.0625 0,2.67188 1.58203,4.25391 1.58203,1.58203 4.28906,1.58203 4.07813,0 6.32813,-3.05859 2.25,-3.09375 2.25,-8.61328 v -0.70313 z m 14.34375,-3.97265 V 340 h -10.23047 v -4.39453 q -1.86328,2.60156 -4.78125,4.00781 -2.91797,1.40625 -6.4336,1.40625 -6.71484,0 -10.47656,-3.55078 -3.72656,-3.55078 -3.72656,-9.91406 0,-6.89063 4.46484,-10.16016 4.46485,-3.30469 13.81641,-3.30469 h 7.13672 v -1.72265 q 0,-2.4961 -1.82813,-3.76172 -1.79297,-1.30078 -5.30859,-1.30078 -3.69141,0 -7.17188,0.94922 -3.44531,0.91406 -7.20703,2.95312 v -8.78906 q 3.41016,-1.40625 6.92578,-2.07422 3.51563,-0.66797 7.45313,-0.66797 9.59766,0 13.46484,3.90234 3.90235,3.90235 3.90235,13.95704 z m 27.65234,-28.08985 V 300.625 h 13.46484 v 7.91016 h -13.46484 v 18.63281 q 0,2.63672 1.26563,3.79687 1.30078,1.125 4.28906,1.125 h 7.91015 V 340 h -8.64843 q -8.85938,0 -11.98828,-2.8125 -3.12891,-2.84766 -3.12891,-10.51172 V 308.53516 H 664.57617 V 300.625 h 10.05469 v -11.17969 z m 21.67578,25.10156 h 37.26563 v 9.45704 h -37.26563 z m 63.01953,-25.10156 V 300.625 h 13.46485 v 7.91016 h -13.46485 v 18.63281 q 0,2.63672 1.26563,3.79687 1.30078,1.125 4.28906,1.125 h 7.91016 V 340 h -8.64844 q -8.85938,0 -11.98828,-2.8125 -3.12891,-2.84766 -3.12891,-10.51172 V 308.53516 H 749.27148 V 300.625 h 10.05469 v -11.17969 z m 42.34766,0 V 300.625 h 13.46484 v 7.91016 h -13.46484 v 18.63281 q 0,2.63672 1.26562,3.79687 1.30079,1.125 4.28907,1.125 h 7.91015 V 340 h -8.64843 q -8.85938,0 -11.98829,-2.8125 -3.1289,-2.84766 -3.1289,-10.51172 V 308.53516 H 791.61914 V 300.625 h 10.05469 v -11.17969 z m 52.92969,12.41016 v 9 q -2.84766,-1.82813 -5.94141,-2.74219 -3.05859,-0.94922 -6.15234,-0.94922 -3.44532,0 -5.20313,1.01953 -1.75781,0.98438 -1.75781,2.95313 0,2.8125 7.52344,4.57031 l 0.38672,0.10547 2.95312,0.70312 q 5.625,1.33594 8.22656,4.32422 2.63672,2.95313 2.63672,8.01563 0,6.08203 -4.00781,9.14062 -3.97266,3.02344 -11.98828,3.02344 -3.55078,0 -7.27735,-0.63281 -3.72656,-0.59766 -7.55859,-1.82813 v -9 q 3.41016,1.9336 6.92578,2.95313 3.55078,1.01953 6.85547,1.01953 3.62109,0 5.48438,-1.05469 1.86328,-1.05469 1.86328,-3.05859 0,-1.96875 -1.33594,-3.02344 -1.30078,-1.05469 -6.25781,-2.25 l -2.84766,-0.63281 q -5.90625,-1.33594 -8.61328,-4.1836 -2.70703,-2.84765 -2.70703,-7.6289 0,-5.69531 4.11328,-8.85938 4.11328,-3.16406 11.56641,-3.16406 3.33984,0 6.64453,0.5625 3.33984,0.52734 6.46875,1.61719 z"
     id="text17"
     style="font-weight:700;font-size:72px;font-family:Menlo, 'SF Mono', 'JetBrains Mono', 'Fira Code', 'Cascadia Code', monospace;letter-spacing:-1;text-anchor:middle;fill:#fce4ec"
     aria-label="wavekat-tts" />
  <!-- Signature ribbon under "wavekat" -->
  <path
     d="M 403 355     C 430 346, 480 362, 540 350     C 590 340, 640 360, 690 348     C 708 343, 714 348, 718 345     L 715 350     C 710 354, 705 349, 688 355     C 638 368, 588 346, 538 358     C 478 370, 428 352, 406 360     Z"
     fill="#ff4081"
     id="path18" />
  <!-- Description -->
  <path
     d="m 551.35645,395 h -2.59278 v -10.85449 h -3.33105 v -2.26758 h 9.25488 v 2.26758 h -3.33105 z m 16.77246,0 h -8.17383 v -13.12207 h 8.17383 v 2.28516 h -5.58106 v 2.83007 h 5.05371 v 2.28516 h -5.05371 v 3.43652 h 5.58106 z m 14.78613,0 h -2.68067 L 577.72949,390.6582 575.2334,395 h -2.68067 l 3.84961,-6.66211 -3.74414,-6.45996 h 2.68067 l 2.39062,4.1748 2.39942,-4.1748 h 2.68066 l -3.72656,6.45996 z m 9.95215,0 h -2.59278 v -10.85449 h -3.33105 v -2.26758 h 9.25488 v 2.26758 h -3.33105 z m 27.67383,0 h -2.59278 v -10.85449 h -3.33105 v -2.26758 h 9.25488 v 2.26758 h -3.33105 z m 12.53613,-11.03027 q -0.99317,0 -1.4502,1.06347 -0.45703,1.05469 -0.45703,3.41895 0,2.35547 0.45703,3.41894 0.45703,1.05469 1.4502,1.05469 1.00195,0 1.45898,-1.05469 0.45703,-1.06347 0.45703,-3.41894 0,-2.36426 -0.45703,-3.41895 -0.45703,-1.06347 -1.45898,-1.06347 z m -4.60547,4.48242 q 0,-3.36621 1.16016,-5.08887 1.16894,-1.72266 3.44531,-1.72266 2.28515,0 3.44531,1.72266 1.16895,1.72266 1.16895,5.08887 0,3.35742 -1.16895,5.08008 -1.16016,1.72265 -3.44531,1.72265 -2.27637,0 -3.44531,-1.72265 -1.16016,-1.72266 -1.16016,-5.08008 z m 31.34766,0.79101 q -1.95997,-0.74707 -2.6543,-1.56445 -0.69434,-0.82617 -0.69434,-2.21484 0,-1.78418 1.14258,-2.80371 1.14258,-1.01954 3.1377,-1.01954 0.90527,0 1.81054,0.21094 0.90528,0.20215 1.79297,0.60645 v 2.53125 q -0.83496,-0.58887 -1.69629,-0.89649 -0.86133,-0.30761 -1.70508,-0.30761 -0.94042,0 -1.4414,0.37793 -0.50098,0.37793 -0.50098,1.08105 0,0.54492 0.36035,0.90527 0.36914,0.35157 1.5293,0.78223 l 1.11621,0.42188 q 1.58203,0.58007 2.3291,1.53808 0.74707,0.95801 0.74707,2.41699 0,1.98633 -1.17773,2.97071 -1.16895,0.97558 -3.54199,0.97558 -0.97559,0 -1.95996,-0.2373 -0.97559,-0.22852 -1.88965,-0.68555 v -2.68066 q 1.03711,0.73828 2.0039,1.09863 0.97559,0.36035 1.92481,0.36035 0.95801,0 1.48535,-0.43066 0.52734,-0.43946 0.52734,-1.22168 0,-0.58887 -0.35156,-1.02832 -0.35156,-0.44824 -1.01953,-0.70313 z m 13.37109,-5.18554 v 3.84961 h 1.06348 q 1.27441,0 1.78418,-0.43067 0.51855,-0.43066 0.51855,-1.49414 0,-1.06347 -0.51855,-1.49414 -0.50977,-0.43066 -1.78418,-0.43066 z m -2.59277,-2.17969 h 3.55957 q 2.71582,0 3.90234,0.9668 1.19531,0.96679 1.19531,3.13769 0,2.1709 -1.19531,3.1377 -1.18652,0.96679 -3.90234,0.96679 h -0.9668 V 395 h -2.59277 z M 692.66113,395 h -8.17383 v -13.12207 h 8.17383 v 2.28516 h -5.58105 v 2.83007 h 5.05371 v 2.28516 h -5.05371 v 3.43652 h 5.58105 z m 13.83692,0 h -8.17383 v -13.12207 h 8.17383 v 2.28516 h -5.58106 v 2.83007 h 5.05371 v 2.28516 h -5.05371 v 3.43652 h 5.58106 z m 13.6875,-0.37793 q -0.61524,0.31641 -1.292,0.47461 -0.67675,0.1582 -1.42382,0.1582 -2.6543,0 -4.05176,-1.74902 -1.39746,-1.74902 -1.39746,-5.05371 0,-3.31348 1.39746,-5.0625 1.39746,-1.74903 4.05176,-1.74903 0.74707,0 1.43261,0.15821 0.68555,0.1582 1.28321,0.47461 v 2.88281 q -0.66797,-0.61523 -1.30078,-0.89648 -0.62403,-0.29004 -1.292,-0.29004 -1.42382,0 -2.15332,1.13379 -0.7207,1.125 -0.7207,3.34863 0,2.21484 0.7207,3.34863 0.7295,1.125 2.15332,1.125 0.66797,0 1.292,-0.28125 0.63281,-0.29004 1.30078,-0.90527 z m 5.54004,-12.74414 h 2.59277 v 5.00098 h 3.24316 v -5.00098 h 2.59278 V 395 h -2.59278 v -5.83594 h -3.24316 V 395 h -2.59277 z"
     id="text18"
     style="font-weight:700;font-size:18px;font-family:Menlo, 'SF Mono', 'JetBrains Mono', 'Fira Code', 'Cascadia Code', monospace;letter-spacing:3;text-anchor:middle;fill:#9f6b7a"
     aria-label="TEXT TO SPEECH" />
  <!-- ======== EDGE ACCENTS ======== -->
  <path
     id="rect18"
     style="opacity:0.15;fill:#ff4081"
     d="M 0,0 H 1280 V 2 H 0 Z" />
  <path
     id="rect19"
     style="opacity:0.15;fill:#ff4081"
     d="m 0,638 h 1280 v 2 H 0 Z" />
</svg>
