<?xml version="1.0" encoding="UTF-8" standalone="no"?>
<svg
   viewBox="0 0 1280 640"
   width="1280"
   height="640"
   version="1.1"
   id="svg19"
   xmlns="http://www.w3.org/2000/svg"
   xmlns:svg="http://www.w3.org/2000/svg">
  <defs
     id="defs14">
    <linearGradient
       id="bg"
       x1="0%"
       y1="0%"
       x2="100%"
       y2="100%">
      <stop
         offset="0%"
         stop-color="#070b14"
         id="stop1" />
      <stop
         offset="100%"
         stop-color="#0a1018"
         id="stop2" />
    </linearGradient>
    <linearGradient
       id="wave1"
       x1="0%"
       y1="0%"
       x2="100%"
       y2="0%">
      <stop
         offset="0%"
         stop-color="#ffd740"
         stop-opacity="0"
         id="stop3" />
      <stop
         offset="30%"
         stop-color="#ffd740"
         stop-opacity="0.12"
         id="stop4" />
      <stop
         offset="50%"
         stop-color="#ffd740"
         stop-opacity="0.18"
         id="stop5" />
      <stop
         offset="70%"
         stop-color="#ffd740"
         stop-opacity="0.12"
         id="stop6" />
      <stop
         offset="100%"
         stop-color="#ffd740"
         stop-opacity="0"
         id="stop7" />
    </linearGradient>
    <linearGradient
       id="wave2"
       x1="0%"
       y1="0%"
       x2="100%"
       y2="0%">
      <stop
         offset="0%"
         stop-color="#ffd740"
         stop-opacity="0"
         id="stop8" />
      <stop
         offset="25%"
         stop-color="#ffd740"
         stop-opacity="0.06"
         id="stop9" />
      <stop
         offset="50%"
         stop-color="#ffd740"
         stop-opacity="0.10"
         id="stop10" />
      <stop
         offset="75%"
         stop-color="#ffd740"
         stop-opacity="0.06"
         id="stop11" />
      <stop
         offset="100%"
         stop-color="#ffd740"
         stop-opacity="0"
         id="stop12" />
    </linearGradient>
    <radialGradient
       id="glow"
       cx="50%"
       cy="50%"
       r="50%">
      <stop
         offset="0%"
         stop-color="#ffd740"
         stop-opacity="0.06"
         id="stop13" />
      <stop
         offset="100%"
         stop-color="#ffd740"
         stop-opacity="0"
         id="stop14" />
    </radialGradient>
    <pattern
       id="dots"
       width="32"
       height="32"
       patternUnits="userSpaceOnUse">
      <circle
         cx="16"
         cy="16"
         r="0.8"
         fill="#ffd740"
         opacity="0.12"
         id="circle14" />
    </pattern>
  </defs>
  <!-- ======== BACKGROUND LAYER ======== -->
  <path
     id="rect14"
     style="fill:url(#bg)"
     d="M 0,0 H 1280 V 640 H 0 Z" />
  <path
     id="rect15"
     style="fill:url(#dots)"
     d="M 0,0 H 1280 V 640 H 0 Z" />
  <path
     id="ellipse15"
     style="fill:url(#glow)"
     d="M 1140,320 A 500,300 0 0 1 640,620 500,300 0 0 1 140,320 500,300 0 0 1 640,20 500,300 0 0 1 1140,320 Z" />
  <path
     d="M 0 340 C 80 280, 160 280, 240 340 C 320 400, 400 400, 480 340 C 560 280, 640 280, 720 340 C 800 400, 880 400, 960 340 C 1040 280, 1120 280, 1200 340 L 1280 340 L 1280 360 L 1200 360 C 1120 300, 1040 300, 960 360 C 880 420, 800 420, 720 360 C 640 300, 560 300, 480 360 C 400 420, 320 420, 240 360 C 160 300, 80 300, 0 360 Z"
     fill="url(#wave1)"
     id="path15" />
  <path
     d="M 0 330 C 60 300, 120 300, 180 330 C 240 360, 300 360, 360 330 C 420 300, 480 300, 540 330 C 600 360, 660 360, 720 330 C 780 300, 840 300, 900 330 C 960 360, 1020 360, 1080 330 C 1140 300, 1200 300, 1280 330 L 1280 345 C 1200 315, 1140 315, 1080 345 C 1020 375, 960 375, 900 345 C 840 315, 780 315, 720 345 C 660 375, 600 375, 540 345 C 480 315, 420 315, 360 345 C 300 375, 240 375, 180 345 C 120 315, 60 315, 0 345 Z"
     fill="url(#wave2)"
     id="path16" />
  <path
     d="M 0 320 C 160 260, 320 260, 480 320 C 640 380, 800 380, 960 320 C 1120 260, 1200 280, 1280 310 L 1280 318 C 1200 288, 1120 268, 960 328 C 800 388, 640 388, 480 328 C 320 268, 160 268, 0 328 Z"
     fill="#ffd740"
     opacity="0.04"
     id="path17" />
  <path
     id="line17"
     style="opacity:0.08;stroke:#ffd740;stroke-width:0.5"
     d="M 0,320 H 1280" />
  <!-- ======== FOREGROUND LAYER ======== -->
  <!-- Repo name -->
  <path
     d="m 406.58789,300.625 h 8.57813 l 4.67578,30.16406 4.2539,-19.86328 h 8.33203 l 4.1836,19.86328 4.74609,-30.16406 h 8.57813 L 442.79883,340 h -9.77344 L 428.24414,319.53906 423.49805,340 h -9.77344 z m 66.95703,20.88281 q -5.76562,0 -8.05078,1.47656 -2.28516,1.47657 -2.28516,5.0625 0,2.67188 1.58204,4.25391 1.58203,1.58203 4.28906,1.58203 4.07812,0 6.32812,-3.05859 2.25,-3.09375 2.25,-8.61328 v -0.70313 z m 14.34375,-3.97265 V 340 H 477.6582 v -4.39453 q -1.86328,2.60156 -4.78125,4.00781 -2.91797,1.40625 -6.43359,1.40625 -6.71484,0 -10.47656,-3.55078 -3.72657,-3.55078 -3.72657,-9.91406 0,-6.89063 4.46485,-10.16016 4.46484,-3.30469 13.8164,-3.30469 h 7.13672 v -1.72265 q 0,-2.4961 -1.82812,-3.76172 -1.79297,-1.30078 -5.3086,-1.30078 -3.6914,0 -7.17187,0.94922 -3.44531,0.91406 -7.20703,2.95312 v -8.78906 q 3.41015,-1.40625 6.92578,-2.07422 3.51562,-0.66797 7.45312,-0.66797 9.59766,0 13.46485,3.90234 3.90234,3.90235 3.90234,13.95704 z M 531.81836,300.625 519.30273,340 h -12.6914 L 494.0957,300.625 h 10.44141 l 8.40234,30.72656 8.4375,-30.72656 z m 40.55469,37.44141 q -3.58594,1.47656 -7.3125,2.21484 -3.72657,0.73828 -7.875,0.73828 -9.87891,0 -15.11719,-5.27344 -5.20313,-5.30859 -5.20313,-15.25781 0,-9.63281 5.02735,-15.22266 5.02734,-5.58984 13.71094,-5.58984 8.7539,0 13.57031,5.20313 4.85156,5.16796 4.85156,14.58984 v 4.18359 H 547.3418 q 0.0351,4.64063 2.74218,6.92578 2.70704,2.28516 8.08594,2.28516 3.55078,0 6.9961,-1.01953 3.44531,-1.01953 7.20703,-3.23438 z m -8.71875,-22.14844 q -0.0703,-4.07813 -2.10938,-6.15235 -2.0039,-2.10937 -5.9414,-2.10937 -3.55079,0 -5.66016,2.17969 -2.10938,2.14453 -2.49609,6.11718 z m 18.4414,-30.6211 h 10.30078 v 28.72266 l 12.375,-13.39453 h 12.48047 L 602.3457,315.32031 618.0957,340 h -11.39062 l -10.79297,-18.42188 -3.51563,3.375 V 340 H 582.0957 Z m 60.83985,36.21094 q -5.76563,0 -8.05078,1.47656 -2.28516,1.47657 -2.28516,5.0625 0,2.67188 1.58203,4.25391 1.58203,1.58203 4.28906,1.58203 4.07813,0 6.32813,-3.05859 2.25,-3.09375 2.25,-8.61328 v -0.70313 z m 14.34375,-3.97265 V 340 h -10.23047 v -4.39453 q -1.86328,2.60156 -4.78125,4.00781 -2.91797,1.40625 -6.4336,1.40625 -6.71484,0 -10.47656,-3.55078 -3.72656,-3.55078 -3.72656,-9.91406 0,-6.89063 4.46484,-10.16016 4.46485,-3.30469 13.81641,-3.30469 h 7.13672 v -1.72265 q 0,-2.4961 -1.82813,-3.76172 -1.79297,-1.30078 -5.30859,-1.30078 -3.69141,0 -7.17188,0.94922 -3.44531,0.91406 -7.20703,2.95312 v -8.78906 q 3.41016,-1.40625 6.92578,-2.07422 3.51563,-0.66797 7.45313,-0.66797 9.59766,0 13.46484,3.90234 3.90235,3.90235 3.90235,13.95704 z m 27.65234,-28.08985 V 300.625 h 13.46484 v 7.91016 h -13.46484 v 18.63281 q 0,2.63672 1.26563,3.79687 1.30078,1.125 4.28906,1.125 h 7.91015 V 340 h -8.64843 q -8.85938,0 -11.98828,-2.8125 -3.12891,-2.84766 -3.12891,-10.51172 V 308.53516 H 664.57617 V 300.625 h 10.05469 v -11.17969 z m 21.67578,25.10156 h 37.26563 v 9.45704 h -37.26563 z m 52.36719,9.03516 v -30.375 H 748.5332 v -7.91016 h 20.74219 v 38.28516 q 0,4.64063 1.44141,6.57422 1.4414,1.93359 4.88672,1.93359 h 8.22656 V 340 H 772.7207 q -7.34765,0 -10.54687,-3.79688 -3.19922,-3.79687 -3.19922,-12.62109 z m 53.35156,-2.07422 q -5.76562,0 -8.05078,1.47656 -2.28516,1.47657 -2.28516,5.0625 0,2.67188 1.58204,4.25391 1.58203,1.58203 4.28906,1.58203 4.07812,0 6.32812,-3.05859 2.25,-3.09375 2.25,-8.61328 v -0.70313 z m 14.34375,-3.97265 V 340 h -10.23047 v -4.39453 q -1.86328,2.60156 -4.78125,4.00781 -2.91797,1.40625 -6.43359,1.40625 -6.71484,0 -10.47656,-3.55078 -3.72657,-3.55078 -3.72657,-9.91406 0,-6.89063 4.46485,-10.16016 4.46484,-3.30469 13.8164,-3.30469 h 7.13672 v -1.72265 q 0,-2.4961 -1.82812,-3.76172 -1.79297,-1.30078 -5.3086,-1.30078 -3.6914,0 -7.17187,0.94922 -3.44531,0.91406 -7.20703,2.95312 v -8.78906 q 3.41015,-1.40625 6.92578,-2.07422 3.51562,-0.66797 7.45312,-0.66797 9.59766,0 13.46485,3.90234 3.90234,3.90235 3.90234,13.95704 z m 33.27735,2.88281 q 0,-5.69531 -1.89844,-8.92969 -1.89844,-3.23437 -5.23828,-3.23437 -3.33985,0 -5.27344,3.23437 -1.93359,3.23438 -1.93359,8.92969 0,5.69531 1.93359,8.92969 1.93359,3.23437 5.27344,3.23437 3.33984,0 5.23828,-3.23437 1.89844,-3.23438 1.89844,-8.92969 z m -14.34375,-14.20313 q 1.89843,-3.26953 4.39453,-4.88672 2.53125,-1.65234 5.69531,-1.65234 6.99609,0 10.75781,5.34375 3.79688,5.34375 3.79688,15.32813 0,9.84375 -3.72657,15.25781 -3.72656,5.41406 -10.47656,5.41406 -3.55078,0 -6.1875,-1.72266 -2.63672,-1.72265 -4.2539,-5.13281 V 340 h -10.26563 v -54.70313 h 10.26563 z"
     id="text17"
     style="font-weight:700;font-size:72px;font-family:Menlo, 'SF Mono', 'JetBrains Mono', 'Fira Code', 'Cascadia Code', monospace;letter-spacing:-1;text-anchor:middle;fill:#fff8e1"
     aria-label="wavekat-lab" />
  <!-- Signature ribbon under "wavekat" -->
  <path
     d="M 403 355     C 430 346, 480 362, 540 350     C 590 340, 640 360, 690 348     C 708 343, 714 348, 718 345     L 715 350     C 710 354, 705 349, 688 355     C 638 368, 588 346, 538 358     C 478 370, 428 352, 406 360     Z"
     fill="#ffd740"
     id="path18" />
  <!-- Description -->
  <path
     d="m 517.14209,388.80371 q 0.38672,0.0791 0.66797,0.36914 0.29004,0.28125 0.70312,1.10742 L 520.88623,395 h -2.84766 l -1.58203,-3.31348 q -0.0703,-0.14062 -0.18457,-0.38672 -0.69433,-1.48535 -1.63476,-1.48535 h -0.82617 V 395 h -2.59278 v -13.12207 h 3.74414 q 2.53125,0 3.62989,0.89648 1.10742,0.89649 1.10742,2.91797 0,1.35352 -0.65918,2.15332 -0.65918,0.79981 -1.89844,0.95801 z m -3.33105,-4.74609 v 3.57715 h 1.22167 q 1.06348,0 1.52051,-0.41309 0.46582,-0.42188 0.46582,-1.37988 0,-0.95801 -0.45703,-1.3711 -0.45703,-0.41308 -1.5293,-0.41308 z M 533.53662,395 h -8.17383 v -13.12207 h 8.17383 v 2.28516 h -5.58105 v 2.83007 h 5.05371 v 2.28516 h -5.05371 v 3.43652 h 5.58105 z m 8.66895,-5.75684 q -1.95996,-0.74707 -2.6543,-1.56445 -0.69434,-0.82617 -0.69434,-2.21484 0,-1.78418 1.14258,-2.80371 1.14258,-1.01954 3.1377,-1.01954 0.90527,0 1.81054,0.21094 0.90528,0.20215 1.79297,0.60645 v 2.53125 q -0.83496,-0.58887 -1.69629,-0.89649 -0.86132,-0.30761 -1.70507,-0.30761 -0.94043,0 -1.44141,0.37793 -0.50098,0.37793 -0.50098,1.08105 0,0.54492 0.36035,0.90527 0.36914,0.35157 1.5293,0.78223 l 1.11621,0.42188 q 1.58203,0.58007 2.3291,1.53808 0.74707,0.95801 0.74707,2.41699 0,1.98633 -1.17773,2.97071 -1.16895,0.97558 -3.54199,0.97558 -0.97559,0 -1.95996,-0.2373 -0.97559,-0.22852 -1.88965,-0.68555 v -2.68066 q 1.03711,0.73828 2.0039,1.09863 0.97559,0.36035 1.92481,0.36035 0.95801,0 1.48535,-0.43066 0.52734,-0.43946 0.52734,-1.22168 0,-0.58887 -0.35156,-1.02832 -0.35156,-0.44824 -1.01953,-0.70313 z M 561.21045,395 h -8.17383 v -13.12207 h 8.17383 v 2.28516 h -5.58106 v 2.83007 h 5.05372 v 2.28516 h -5.05372 v 3.43652 h 5.58106 z m 9.60059,-10.74902 -1.22168,5.37011 h 2.45214 z m -1.58204,-2.37305 h 3.17286 L 575.94385,395 h -2.59278 l -0.80859,-3.24316 H 569.0708 L 568.27979,395 h -2.59278 z m 17.09766,6.92578 q 0.38672,0.0791 0.66797,0.36914 0.29004,0.28125 0.70312,1.10742 L 590.0708,395 h -2.84766 l -1.58203,-3.31348 q -0.0703,-0.14062 -0.18457,-0.38672 -0.69433,-1.48535 -1.63476,-1.48535 h -0.82617 V 395 h -2.59278 v -13.12207 h 3.74414 q 2.53125,0 3.62989,0.89648 1.10742,0.89649 1.10742,2.91797 0,1.35352 -0.65918,2.15332 -0.65918,0.79981 -1.89844,0.95801 z m -3.33105,-4.74609 v 3.57715 h 1.22168 q 1.06347,0 1.5205,-0.41309 0.46582,-0.42188 0.46582,-1.37988 0,-0.95801 -0.45703,-1.3711 -0.45703,-0.41308 -1.52929,-0.41308 z m 19.57617,10.56445 q -0.61524,0.31641 -1.29199,0.47461 -0.67676,0.1582 -1.42383,0.1582 -2.6543,0 -4.05176,-1.74902 -1.39746,-1.74902 -1.39746,-5.05371 0,-3.31348 1.39746,-5.0625 1.39746,-1.74903 4.05176,-1.74903 0.74707,0 1.43261,0.15821 0.68555,0.1582 1.28321,0.47461 v 2.88281 q -0.66797,-0.61523 -1.30078,-0.89648 -0.62403,-0.29004 -1.292,-0.29004 -1.42382,0 -2.15332,1.13379 -0.7207,1.125 -0.7207,3.34863 0,2.21484 0.7207,3.34863 0.7295,1.125 2.15332,1.125 0.66797,0 1.292,-0.28125 0.63281,-0.29004 1.30078,-0.90527 z m 5.54004,-12.74414 h 2.59277 v 5.00098 h 3.24316 v -5.00098 h 2.59278 V 395 h -2.59278 v -5.83594 h -3.24316 V 395 h -2.59277 z m 30.48632,2.17969 v 3.84961 h 1.06348 q 1.27442,0 1.78418,-0.43067 0.51856,-0.43066 0.51856,-1.49414 0,-1.06347 -0.51856,-1.49414 -0.50976,-0.43066 -1.78418,-0.43066 z m -2.59277,-2.17969 h 3.55957 q 2.71582,0 3.90235,0.9668 1.19531,0.96679 1.19531,3.13769 0,2.1709 -1.19531,3.1377 -1.18653,0.96679 -3.90235,0.96679 h -0.9668 V 395 h -2.59277 z M 650.396,395 v -13.12207 h 2.59277 v 10.83691 h 5.5459 V 395 Z m 17.27343,-10.74902 -1.22168,5.37011 h 2.45215 z m -1.58203,-2.37305 h 3.17285 L 672.80225,395 h -2.59278 l -0.80859,-3.24316 H 665.9292 L 665.13818,395 h -2.59277 z m 10.0752,0 h 2.79492 l 2.54883,5.27344 2.55761,-5.27344 h 2.79493 l -4.05176,7.9541 V 395 h -2.59277 v -5.16797 z m 21.43066,10.74902 v -2.50488 h -1.77539 v -2.17969 h 4.04297 v 6.01172 q -0.74707,0.6416 -1.65234,0.97559 -0.89649,0.32519 -1.92481,0.32519 -2.54883,0 -3.9375,-1.7666 -1.38867,-1.77539 -1.38867,-5.03613 0,-3.31348 1.39746,-5.0625 1.40625,-1.74903 4.05176,-1.74903 0.79101,0 1.55566,0.22852 0.76465,0.21973 1.43262,0.6416 v 2.87403 q -0.54492,-0.70313 -1.25684,-1.05469 -0.70312,-0.36035 -1.54687,-0.36035 -1.47656,0 -2.20606,1.11621 -0.72949,1.10742 -0.72949,3.36621 0,2.18847 0.70313,3.33105 0.70312,1.14258 2.04785,1.14258 0.4043,0 0.70312,-0.0703 0.29883,-0.0791 0.4834,-0.22852 z m 13.26563,-3.82324 q 0.38672,0.0791 0.66797,0.36914 0.29003,0.28125 0.70312,1.10742 L 714.60303,395 h -2.84766 l -1.58203,-3.31348 q -0.0703,-0.14062 -0.18457,-0.38672 -0.69434,-1.48535 -1.63477,-1.48535 h -0.82617 V 395 h -2.59277 v -13.12207 h 3.74414 q 2.53125,0 3.62988,0.89648 1.10742,0.89649 1.10742,2.91797 0,1.35352 -0.65918,2.15332 -0.65918,0.79981 -1.89843,0.95801 z m -3.33106,-4.74609 v 3.57715 h 1.22168 q 1.06348,0 1.52051,-0.41309 0.46582,-0.42188 0.46582,-1.37988 0,-0.95801 -0.45703,-1.3711 -0.45703,-0.41308 -1.5293,-0.41308 z m 15.48926,-0.0879 q -0.99316,0 -1.4502,1.06347 -0.45703,1.05469 -0.45703,3.41895 0,2.35547 0.45703,3.41894 0.45704,1.05469 1.4502,1.05469 1.00195,0 1.45898,-1.05469 0.45704,-1.06347 0.45704,-3.41894 0,-2.36426 -0.45704,-3.41895 -0.45703,-1.06347 -1.45898,-1.06347 z m -4.60547,4.48242 q 0,-3.36621 1.16016,-5.08887 1.16894,-1.72266 3.44531,-1.72266 2.28516,0 3.44531,1.72266 1.16895,1.72266 1.16895,5.08887 0,3.35742 -1.16895,5.08008 -1.16015,1.72265 -3.44531,1.72265 -2.27637,0 -3.44531,-1.72265 -1.16016,-1.72266 -1.16016,-5.08008 z m 13.95996,1.70508 v -8.2793 h 2.59278 v 8.92969 q 0,0.98437 0.50097,1.54687 0.50098,0.55371 1.38867,0.55371 0.8877,0 1.38868,-0.55371 0.50097,-0.5625 0.50097,-1.54687 v -8.92969 h 2.59278 v 8.2793 q 0,2.67187 -1.06348,3.88476 -1.06348,1.21289 -3.41895,1.21289 -2.34668,0 -3.41894,-1.21289 -1.06348,-1.21289 -1.06348,-3.88476 z m 13.95117,-8.2793 h 2.78614 l 3.65625,9.53613 v -9.53613 h 2.28515 V 395 h -2.76855 l -3.67383,-9.53613 V 395 h -2.28516 z m 16.58789,2.33789 v 8.44629 h 0.70313 q 1.5293,0 2.17969,-0.95801 0.65039,-0.9668 0.65039,-3.27832 0,-2.29394 -0.65039,-3.25195 -0.65039,-0.95801 -2.17969,-0.95801 z m -2.59277,-2.33789 h 2.77734 q 3.2168,0 4.63184,1.53809 1.41504,1.52929 1.41504,5.00976 0,3.48926 -1.41504,5.03613 Q 766.31201,395 763.09521,395 h -2.77734 z"
     id="text18"
     style="font-weight:700;font-size:18px;font-family:Menlo, 'SF Mono', 'JetBrains Mono', 'Fira Code', 'Cascadia Code', monospace;letter-spacing:3;text-anchor:middle;fill:#9f8a40"
     aria-label="RESEARCH PLAYGROUND" />
  <!-- ======== EDGE ACCENTS ======== -->
  <path
     id="rect18"
     style="opacity:0.15;fill:#ffd740"
     d="M 0,0 H 1280 V 2 H 0 Z" />
  <path
     id="rect19"
     style="opacity:0.15;fill:#ffd740"
     d="m 0,638 h 1280 v 2 H 0 Z" />
</svg>
