<?xml version="1.0" encoding="UTF-8" standalone="no"?>
<svg
   viewBox="0 0 1200 630"
   width="1200"
   height="630"
   version="1.1"
   id="svg19"
   xmlns="http://www.w3.org/2000/svg"
   xmlns:svg="http://www.w3.org/2000/svg">
  <!--
    WaveKat OG Image (wavekat.com)
    ==============================
    LinkedIn / OpenGraph: 1200×630
    Source file — text elements, requires `make dist` to convert to paths.
    Edit the tagline text below to update the description.
  -->
  <defs
     id="defs14">
    <!-- Background gradient -->
    <linearGradient
       id="bg"
       x1="0%"
       y1="0%"
       x2="100%"
       y2="100%">
      <stop
         offset="0%"
         stop-color="#070b14"
         id="stop1" />
      <stop
         offset="100%"
         stop-color="#0a1018"
         id="stop2" />
    </linearGradient>
    <!-- Wave fills (neutral for main wavekat brand) -->
    <linearGradient
       id="wave1"
       x1="0%"
       y1="0%"
       x2="100%"
       y2="0%">
      <stop
         offset="0%"
         stop-color="#ffffff"
         stop-opacity="0"
         id="stop3" />
      <stop
         offset="30%"
         stop-color="#ffffff"
         stop-opacity="0.05"
         id="stop4" />
      <stop
         offset="50%"
         stop-color="#ffffff"
         stop-opacity="0.08"
         id="stop5" />
      <stop
         offset="70%"
         stop-color="#ffffff"
         stop-opacity="0.05"
         id="stop6" />
      <stop
         offset="100%"
         stop-color="#ffffff"
         stop-opacity="0"
         id="stop7" />
    </linearGradient>
    <linearGradient
       id="wave2"
       x1="0%"
       y1="0%"
       x2="100%"
       y2="0%">
      <stop
         offset="0%"
         stop-color="#ffffff"
         stop-opacity="0"
         id="stop8" />
      <stop
         offset="25%"
         stop-color="#ffffff"
         stop-opacity="0.03"
         id="stop9" />
      <stop
         offset="50%"
         stop-color="#ffffff"
         stop-opacity="0.05"
         id="stop10" />
      <stop
         offset="75%"
         stop-color="#ffffff"
         stop-opacity="0.03"
         id="stop11" />
      <stop
         offset="100%"
         stop-color="#ffffff"
         stop-opacity="0"
         id="stop12" />
    </linearGradient>
    <!-- Central glow -->
    <radialGradient
       id="glow"
       cx="50%"
       cy="50%"
       r="50%">
      <stop
         offset="0%"
         stop-color="#ffffff"
         stop-opacity="0.03"
         id="stop13" />
      <stop
         offset="100%"
         stop-color="#ffffff"
         stop-opacity="0"
         id="stop14" />
    </radialGradient>
    <!-- Dot grid -->
    <pattern
       id="dots"
       width="32"
       height="32"
       patternUnits="userSpaceOnUse">
      <circle
         cx="16"
         cy="16"
         r="0.8"
         fill="#ffffff"
         opacity="0.06"
         id="circle14" />
    </pattern>
  </defs>
  <!-- ======== BACKGROUND LAYER ======== -->
  <path
     id="rect14"
     style="fill:url(#bg)"
     d="M 0,0 H 1200 V 630 H 0 Z" />
  <path
     id="rect15"
     style="fill:url(#dots)"
     d="M 0,0 H 1200 V 630 H 0 Z" />
  <path
     id="ellipse15"
     style="fill:url(#glow)"
     d="M 1080,315 A 480,280 0 0 1 600,595 480,280 0 0 1 120,315 480,280 0 0 1 600,35 480,280 0 0 1 1080,315 Z" />
  <!-- Wave layer 1 — large, slow sine -->
  <path
     d="M 0 330     C 75 270, 150 270, 225 330     C 300 390, 375 390, 450 330     C 525 270, 600 270, 675 330     C 750 390, 825 390, 900 330     C 975 270, 1050 270, 1125 330     L 1200 330 L 1200 349     L 1125 349     C 1050 289, 975 289, 900 349     C 825 409, 750 409, 675 349     C 600 289, 525 289, 450 349     C 375 409, 300 409, 225 349     C 150 289, 75 289, 0 349     Z"
     fill="url(#wave1)"
     id="path15" />
  <!-- Wave layer 2 — tighter frequency -->
  <path
     d="M 0 320     C 56 291, 112 291, 168 320     C 225 349, 281 349, 337 320     C 393 291, 450 291, 506 320     C 562 349, 618 349, 675 320     C 731 291, 787 291, 843 320     C 900 349, 956 349, 1012 320     C 1069 291, 1125 291, 1200 320     L 1200 334     C 1125 305, 1069 305, 1012 334     C 956 363, 900 363, 843 334     C 787 305, 731 305, 675 334     C 618 363, 562 363, 506 334     C 450 305, 393 305, 337 334     C 281 363, 225 363, 168 334     C 112 305, 56 305, 0 334     Z"
     fill="url(#wave2)"
     id="path16" />
  <!-- Wave layer 3 — wide, very subtle -->
  <path
     d="M 0 310     C 150 251, 300 251, 450 310     C 600 369, 750 369, 900 310     C 1050 251, 1125 270, 1200 299     L 1200 307     C 1125 278, 1050 257, 900 317     C 750 377, 600 377, 450 317     C 300 257, 150 257, 0 317     Z"
     fill="#ffffff"
     opacity="0.02"
     id="path17" />
  <!-- Center hairline -->
  <path
     id="line17"
     style="opacity:0.05;stroke:#ffffff;stroke-width:0.5"
     d="M 0,315 H 1200" />
  <!-- ======== FOREGROUND LAYER ======== -->
  <!-- Wordmark -->
  <path
     d="m 451.2832,290.625 h 8.57813 l 4.67578,30.16406 4.25391,-19.86328 h 8.33203 l 4.18359,19.86328 4.74609,-30.16406 h 8.57813 L 487.49414,330 H 477.7207 L 472.93945,309.53906 468.19336,330 h -9.77344 z m 66.95703,20.88281 q -5.76562,0 -8.05078,1.47656 -2.28515,1.47657 -2.28515,5.0625 0,2.67188 1.58203,4.25391 1.58203,1.58203 4.28906,1.58203 4.07813,0 6.32813,-3.05859 2.25,-3.09375 2.25,-8.61328 v -0.70313 z m 14.34375,-3.97265 V 330 h -10.23046 v -4.39453 q -1.86329,2.60156 -4.78125,4.00781 -2.91797,1.40625 -6.4336,1.40625 -6.71484,0 -10.47656,-3.55078 -3.72656,-3.55078 -3.72656,-9.91406 0,-6.89063 4.46484,-10.16016 4.46484,-3.30469 13.81641,-3.30469 h 7.13672 v -1.72265 q 0,-2.4961 -1.82813,-3.76172 -1.79297,-1.30078 -5.30859,-1.30078 -3.69141,0 -7.17188,0.94922 -3.44531,0.91406 -7.20703,2.95312 v -8.78906 q 3.41016,-1.40625 6.92578,-2.07422 3.51563,-0.66797 7.45313,-0.66797 9.59765,0 13.46484,3.90234 3.90234,3.90235 3.90234,13.95704 z M 576.51367,290.625 563.99805,330 h -12.69141 l -12.51562,-39.375 h 10.4414 l 8.40235,30.72656 8.4375,-30.72656 z m 40.55469,37.44141 q -3.58594,1.47656 -7.3125,2.21484 -3.72656,0.73828 -7.875,0.73828 -9.87891,0 -15.11719,-5.27344 -5.20312,-5.30859 -5.20312,-15.25781 0,-9.63281 5.02734,-15.22266 5.02734,-5.58984 13.71094,-5.58984 8.7539,0 13.57031,5.20313 4.85156,5.16796 4.85156,14.58984 v 4.18359 h -26.68359 q 0.0352,4.64063 2.74219,6.92578 2.70703,2.28516 8.08593,2.28516 3.55079,0 6.9961,-1.01953 3.44531,-1.01953 7.20703,-3.23438 z m -8.71875,-22.14844 q -0.0703,-4.07813 -2.10938,-6.15235 -2.0039,-2.10937 -5.9414,-2.10937 -3.55078,0 -5.66016,2.17969 -2.10937,2.14453 -2.49609,6.11718 z m 18.44141,-30.6211 h 10.30078 v 28.72266 l 12.375,-13.39453 h 12.48047 l -14.90625,14.69531 15.75,24.67969 h -11.39063 l -10.79297,-18.42188 -3.51562,3.375 V 330 h -10.30078 z m 60.83984,36.21094 q -5.76563,0 -8.05078,1.47656 -2.28516,1.47657 -2.28516,5.0625 0,2.67188 1.58203,4.25391 1.58203,1.58203 4.28907,1.58203 4.07812,0 6.32812,-3.05859 2.25,-3.09375 2.25,-8.61328 v -0.70313 z m 14.34375,-3.97265 V 330 h -10.23047 v -4.39453 q -1.86328,2.60156 -4.78125,4.00781 -2.91797,1.40625 -6.43359,1.40625 -6.71485,0 -10.47657,-3.55078 -3.72656,-3.55078 -3.72656,-9.91406 0,-6.89063 4.46485,-10.16016 4.46484,-3.30469 13.8164,-3.30469 h 7.13672 v -1.72265 q 0,-2.4961 -1.82812,-3.76172 -1.79297,-1.30078 -5.3086,-1.30078 -3.6914,0 -7.17187,0.94922 -3.44532,0.91406 -7.20703,2.95312 v -8.78906 q 3.41015,-1.40625 6.92578,-2.07422 3.51562,-0.66797 7.45312,-0.66797 9.59766,0 13.46485,3.90234 3.90234,3.90235 3.90234,13.95704 z m 27.65234,-28.08985 V 290.625 h 13.46485 v 7.91016 h -13.46485 v 18.63281 q 0,2.63672 1.26563,3.79687 1.30078,1.125 4.28906,1.125 h 7.91016 V 330 h -8.64844 q -8.85938,0 -11.98828,-2.8125 -3.12891,-2.84766 -3.12891,-10.51172 V 298.53516 H 709.27148 V 290.625 h 10.05469 v -11.17969 z"
     id="text17"
     style="font-weight:700;font-size:72px;font-family:Menlo, 'SF Mono', 'JetBrains Mono', 'Fira Code', 'Cascadia Code', monospace;letter-spacing:-1;text-anchor:middle;fill:#ffffff"
     aria-label="wavekat" />
  <!--
    Signature ribbon beneath "wavekat".
    Centered at x=600 for "wavekat" (7 chars × 42.2px ≈ 295px wide).
    X1=447, X2=762 (315px span, ~10px overshoot each side).
  -->
  <path
     d="M 447 345     C 474 336, 524 352, 584 340     C 634 330, 684 350, 734 338     C 752 333, 758 338, 762 335     L 759 340     C 754 344, 749 339, 732 345     C 682 358, 632 336, 582 348     C 522 360, 472 342, 450 350     Z"
     fill="#888888"
     id="path18" />
  <!-- Tagline -->
  <path
     d="m 484.06055,383.80371 q 0.38672,0.0791 0.66797,0.36914 0.29003,0.28125 0.70312,1.10742 L 487.80469,390 h -2.84766 l -1.58203,-3.31348 q -0.0703,-0.14062 -0.18457,-0.38672 -0.69434,-1.48535 -1.63477,-1.48535 h -0.82617 V 390 h -2.59277 v -13.12207 h 3.74414 q 2.53125,0 3.62988,0.89648 1.10742,0.89649 1.10742,2.91797 0,1.35352 -0.65918,2.15332 -0.65918,0.79981 -1.89843,0.95801 z m -3.33106,-4.74609 v 3.57715 h 1.22168 q 1.06348,0 1.52051,-0.41309 0.46582,-0.42188 0.46582,-1.37988 0,-0.95801 -0.45703,-1.3711 -0.45703,-0.41308 -1.5293,-0.41308 z M 500.45508,390 h -8.17383 v -13.12207 h 8.17383 v 2.28516 h -5.58106 v 2.83007 h 5.05371 v 2.28516 h -5.05371 v 3.43652 h 5.58106 z m 9.60058,-10.74902 -1.22168,5.37011 h 2.45215 z m -1.58203,-2.37305 h 3.17285 L 515.18848,390 h -2.59278 l -0.80859,-3.24316 h -3.47168 L 507.52441,390 h -2.59277 z M 520.45605,390 v -13.12207 h 2.59278 v 10.83691 h 5.5459 V 390 Z m 12.75586,-6.36328 h 9.31641 v 2.36426 h -9.31641 z M 552.86719,390 h -2.59278 v -10.85449 h -3.33105 v -2.26758 h 9.25488 v 2.26758 h -3.33105 z m 8.63379,-10.83691 v -2.28516 h 7.81347 v 2.28516 h -2.61035 v 8.55175 h 2.61035 V 390 h -7.81347 v -2.28516 h 2.61035 v -8.55175 z m 13.08105,-2.28516 h 3.09375 l 1.56445,5.75684 1.55567,-5.75684 h 3.11133 V 390 h -2.23243 v -10.51172 l -1.38867,5.73926 h -2.06543 l -1.40625,-5.73926 V 390 h -2.23242 z M 597.31348,390 h -8.17383 v -13.12207 h 8.17383 v 2.28516 h -5.58106 v 2.83007 h 5.05371 v 2.28516 h -5.05371 v 3.43652 h 5.58106 z m 23.4375,-2.16211 2.31152,-10.95996 h 2.61035 L 622.55273,390 h -3.59472 l -3.12012,-13.12207 h 2.61035 z m 13.83691,-8.86816 q -0.99316,0 -1.45019,1.06347 -0.45704,1.05469 -0.45704,3.41895 0,2.35547 0.45704,3.41894 0.45703,1.05469 1.45019,1.05469 1.00195,0 1.45898,-1.05469 0.45704,-1.06347 0.45704,-3.41894 0,-2.36426 -0.45704,-3.41895 -0.45703,-1.06347 -1.45898,-1.06347 z m -4.60547,4.48242 q 0,-3.36621 1.16016,-5.08887 1.16894,-1.72266 3.44531,-1.72266 2.28516,0 3.44531,1.72266 1.16895,1.72266 1.16895,5.08887 0,3.35742 -1.16895,5.08008 -1.16015,1.72265 -3.44531,1.72265 -2.27637,0 -3.44531,-1.72265 -1.16016,-1.72266 -1.16016,-5.08008 z m 14.54004,-4.28906 v -2.28516 h 7.81348 v 2.28516 h -2.61035 v 8.55175 h 2.61035 V 390 h -7.81348 v -2.28516 h 2.61035 v -8.55175 z m 21.82617,10.45898 q -0.61523,0.31641 -1.29199,0.47461 -0.67676,0.1582 -1.42383,0.1582 -2.65429,0 -4.05176,-1.74902 -1.39746,-1.74902 -1.39746,-5.05371 0,-3.31348 1.39746,-5.0625 1.39747,-1.74903 4.05176,-1.74903 0.74707,0 1.43262,0.15821 0.68555,0.1582 1.2832,0.47461 v 2.88281 q -0.66797,-0.61523 -1.30078,-0.89648 -0.62402,-0.29004 -1.29199,-0.29004 -1.42383,0 -2.15332,1.13379 -0.7207,1.125 -0.7207,3.34863 0,2.21484 0.7207,3.34863 0.72949,1.125 2.15332,1.125 0.66797,0 1.29199,-0.28125 0.63281,-0.29004 1.30078,-0.90527 z M 680.33496,390 h -8.17383 v -13.12207 h 8.17383 v 2.28516 h -5.58105 v 2.83007 h 5.05371 v 2.28516 h -5.05371 v 3.43652 h 5.58105 z m 23.4375,-10.74902 -1.22168,5.37011 h 2.45215 z m -1.58203,-2.37305 h 3.17285 L 708.90527,390 h -2.59277 l -0.80859,-3.24316 h -3.47168 L 701.24121,390 h -2.59277 z m 11.5166,2.28516 v -2.28516 h 7.81348 v 2.28516 h -2.61035 v 8.55175 h 2.61035 V 390 h -7.81348 v -2.28516 h 2.61035 v -8.55175 z"
     id="text18"
     style="font-weight:700;font-size:18px;font-family:Menlo, 'SF Mono', 'JetBrains Mono', 'Fira Code', 'Cascadia Code', monospace;letter-spacing:3;text-anchor:middle;fill:#666666"
     aria-label="REAL-TIME VOICE AI" />
  <!-- ======== EDGE ACCENTS ======== -->
  <path
     id="rect18"
     style="opacity:0.08;fill:#ffffff"
     d="M 0,0 H 1200 V 2 H 0 Z" />
  <path
     id="rect19"
     style="opacity:0.08;fill:#ffffff"
     d="m 0,628 h 1200 v 2 H 0 Z" />
</svg>
