<?xml version="1.0" encoding="UTF-8" standalone="no"?>
<svg
   viewBox="0 0 640 160"
   width="640"
   height="160"
   version="1.1"
   id="svg3"
   xmlns="http://www.w3.org/2000/svg"
   xmlns:svg="http://www.w3.org/2000/svg">
  <defs
     id="defs3" />
  <!-- Background -->
  <path
     id="rect1"
     d="M 0,0 H 640 V 160 H 0 Z" />
  <!-- W mark — white box, black W -->
  <path
     id="rect2"
     style="fill:#ffffff"
     d="m 58,30 h 64 c 9.972,0 18,8.028 18,18 v 64 c 0,9.972 -8.028,18 -18,18 H 58 c -9.972,0 -18,-8.028 -18,-18 V 48 c 0,-9.972 8.028,-18 18,-18 z" />
  <g
     transform="translate(55, 55.15) scale(0.35)"
     id="g2">
    <path
       d="M42.6829 142L0 0H35.1626L56.5041 74.6514C57.4526 78.0324 58.2656 81.481 58.9431 84.9971C59.7561 88.3781 60.3659 91.6238 60.7724 94.7343C61.3144 97.8448 61.7209 100.752 61.9919 103.457C62.2629 106.027 62.5339 108.19 62.8049 109.949H58.3333C59.1464 104.945 59.8239 100.482 60.3659 96.56C61.0434 92.6381 61.7886 88.9867 62.6016 85.6057C63.4147 82.0895 64.4309 78.4381 65.6504 74.6514L86.7886 18.46H114.431L135.163 74.6514C136.789 79.1143 138.144 83.3067 139.228 87.2286C140.312 91.1505 141.125 94.9371 141.667 98.5886C142.344 102.105 142.886 105.621 143.293 109.137L139.228 109.746C139.499 107.311 139.702 105.08 139.837 103.051C139.973 100.888 140.108 98.8591 140.244 96.9657C140.515 94.9371 140.786 92.841 141.057 90.6771C141.328 88.5133 141.734 86.1467 142.276 83.5771C142.818 80.8724 143.564 77.8295 144.512 74.4486L165.65 0H200L157.317 142H130.894L97.1545 60.2486L101.016 60.6543L69.9187 142H42.6829Z"
       fill="#000000"
       id="path2" />
  </g>
  <!-- Repo name -->
  <path
     d="m 176,47.21875 h 4.52734 l 2.46778,15.919922 2.24511,-10.483399 h 4.39747 l 2.208,10.483399 2.50489,-15.919922 h 4.52734 L 195.11133,68 h -5.15821 L 187.42969,57.201172 184.9248,68 h -5.1582 z m 35.36621,11.021484 q -3.04297,0 -4.24902,0.779297 -1.20606,0.779297 -1.20606,2.671875 0,1.410156 0.83496,2.245117 0.83496,0.834961 2.26368,0.834961 2.15234,0 3.33984,-1.614257 1.1875,-1.632813 1.1875,-4.545899 v -0.371094 z m 7.57031,-2.096679 V 68 h -5.39941 v -2.319336 q -0.9834,1.373047 -2.52344,2.115234 -1.54004,0.742188 -3.39551,0.742188 -3.54394,0 -5.52929,-1.874024 -1.9668,-1.874023 -1.9668,-5.232421 0,-3.636719 2.35645,-5.362305 2.35644,-1.744141 7.29199,-1.744141 h 3.7666 v -0.909179 q 0,-1.317383 -0.96484,-1.985352 -0.94629,-0.686523 -2.80176,-0.686523 -1.94824,0 -3.78516,0.500976 -1.81836,0.482422 -3.80371,1.558594 v -4.638672 q 1.79981,-0.742187 3.65527,-1.094727 1.85547,-0.352539 3.9336,-0.352539 5.06543,0 7.10644,2.059571 2.05957,2.05957 2.05957,7.366211 z M 242.14941,47.21875 235.54395,68 h -6.69825 l -6.60547,-20.78125 h 5.51075 l 4.43457,16.216797 4.45312,-16.216797 z m 21.43164,19.760742 q -1.89257,0.779297 -3.85937,1.168945 -1.9668,0.389649 -4.15625,0.389649 -5.21387,0 -7.97852,-2.783203 -2.74609,-2.801758 -2.74609,-8.052735 0,-5.083984 2.65332,-8.034179 2.65332,-2.950196 7.23633,-2.950196 4.62012,0 7.16211,2.746094 2.56054,2.727539 2.56054,7.700195 v 2.208008 h -14.083 q 0.0186,2.449219 1.44726,3.655274 1.42871,1.206054 4.26758,1.206054 1.87402,0 3.69238,-0.538086 1.81836,-0.538085 3.80371,-1.707031 z m -4.60156,-11.689453 q -0.0371,-2.152344 -1.11328,-3.24707 -1.05762,-1.113282 -3.13574,-1.113282 -1.87402,0 -2.98731,1.150391 -1.11328,1.131836 -1.31738,3.228516 z m 9.76074,-16.161133 h 5.43653 v 15.15918 l 6.53125,-7.069336 h 6.58691 L 279.42773,54.974609 287.74023,68 h -6.01171 l -5.69629,-9.722656 -1.85547,1.78125 V 68 h -5.43653 z m 32.1377,19.111328 q -3.04297,0 -4.24902,0.779297 -1.20606,0.779297 -1.20606,2.671875 0,1.410156 0.83496,2.245117 0.83496,0.834961 2.26367,0.834961 2.15235,0 3.33985,-1.614257 1.1875,-1.632813 1.1875,-4.545899 v -0.371094 z m 7.57031,-2.096679 V 68 h -5.39941 v -2.319336 q -0.9834,1.373047 -2.52344,2.115234 -1.54004,0.742188 -3.39551,0.742188 -3.54394,0 -5.52929,-1.874024 -1.9668,-1.874023 -1.9668,-5.232421 0,-3.636719 2.35644,-5.362305 2.35645,-1.744141 7.292,-1.744141 h 3.7666 v -0.909179 q 0,-1.317383 -0.96485,-1.985352 -0.94628,-0.686523 -2.80175,-0.686523 -1.94825,0 -3.78516,0.500976 -1.81836,0.482422 -3.80371,1.558594 v -4.638672 q 1.7998,-0.742187 3.65527,-1.094727 1.85547,-0.352539 3.9336,-0.352539 5.06543,0 7.10644,2.059571 2.05957,2.05957 2.05957,7.366211 z m 14.62207,-14.825196 v 5.900391 h 7.10645 v 4.174805 h -7.10645 v 9.833984 q 0,1.391602 0.66797,2.003906 0.68652,0.59375 2.26367,0.59375 h 4.17481 V 68 h -4.56446 q -4.67578,0 -6.32714,-1.484375 -1.65137,-1.50293 -1.65137,-5.547852 v -9.574218 h -5.30664 V 47.21875 h 5.30664 v -5.900391 z m 11.46778,13.248047 h 19.66796 v 4.991211 h -19.66796 z m 33.28808,-13.248047 v 5.900391 h 7.10645 v 4.174805 h -7.10645 v 9.833984 q 0,1.391602 0.66797,2.003906 0.68652,0.59375 2.26367,0.59375 h 4.17481 V 68 h -4.56446 q -4.67578,0 -6.32714,-1.484375 -1.65137,-1.50293 -1.65137,-5.547852 v -9.574218 h -5.30664 V 47.21875 h 5.30664 v -5.900391 z m 12.54395,19.426758 V 47.21875 h 5.43652 v 12.691406 q 0,2.245117 0.63086,3.209961 0.63086,0.964844 2.09668,0.964844 1.46582,0 2.28223,-1.298828 0.83496,-1.298828 0.83496,-3.636719 V 47.21875 h 5.43652 V 68 h -5.43652 v -3.080078 q -0.5752,1.725586 -1.9668,2.671875 -1.37305,0.946289 -3.32129,0.946289 -2.96875,0 -4.49023,-1.966797 -1.50293,-1.966797 -1.50293,-5.826172 z m 40.76562,-7.792969 q -0.89062,-0.816406 -2.09668,-1.224609 -1.1875,-0.408203 -2.61621,-0.408203 -1.72558,0 -3.02441,0.612305 -1.28028,0.59375 -1.98535,1.74414 -0.44532,0.705078 -0.63086,1.707031 -0.167,1.001954 -0.167,3.042969 V 68 h -5.43652 V 47.21875 h 5.43652 v 3.228516 q 0.79786,-1.78125 2.44922,-2.746094 1.65137,-0.983399 3.85938,-0.983399 1.11328,0 2.1709,0.278321 1.07617,0.259765 2.04101,0.779297 z m 20.89356,1.558594 V 68 h -5.39942 V 55.345703 q 0,-2.263672 -0.64941,-3.228516 -0.63086,-0.983398 -2.07813,-0.983398 -1.46582,0 -2.31933,1.317383 -0.83496,1.317383 -0.83496,3.655273 V 68 h -5.39942 V 47.21875 h 5.39942 v 3.117187 q 0.57519,-1.725585 1.96679,-2.671875 1.39161,-0.946289 3.3584,-0.946289 2.9502,0 4.45313,1.966797 1.50293,1.948242 1.50293,5.826172 z"
     id="text2"
     style="font-weight:700;font-size:38px;font-family:Menlo, 'SF Mono', 'JetBrains Mono', 'Fira Code', 'Cascadia Code', monospace;letter-spacing:-0.5;fill:#ffffff"
     aria-label="wavekat-turn" />
  <!-- Signature ribbon under "wavekat" -->
  <path
     d="M 173 74     C 186 69, 210 79, 248 72     C 278 66, 302 78, 328 71     C 334 68, 337 72, 339 70     L 338 73     C 336 75, 333 71, 327 75     C 301 82, 277 70, 247 76     C 209 83, 185 73, 175 78     Z"
     fill="#777777"
     id="path3" />
  <!-- Subtitle -->
  <path
     d="m 182.21094,97.639648 -0.9502,4.176762 h 1.90723 z m -1.23047,-1.845703 h 2.46777 L 186.20312,106 h -2.0166 l -0.6289,-2.52246 h -2.7002 L 180.24219,106 h -2.0166 z m 18.87695,0 h 1.76367 l 0.73145,7.492185 0.88183,-4.846677 h 1.67481 l 1.02539,4.846677 0.57422,-7.492185 h 1.77734 L 207.11035,106 h -1.87988 L 204.06836,100.64063 202.98145,106 h -1.86622 z m 15.13965,1.845703 -0.9502,4.176762 h 1.90723 z m -1.23047,-1.845703 h 2.46777 L 218.98926,106 h -2.0166 l -0.62891,-2.52246 h -2.7002 L 213.02832,106 h -2.0166 z m 12.15918,8.524415 1.79785,-8.524415 h 2.03028 L 227.32715,106 h -2.7959 l -2.42676,-10.206055 h 2.03028 z M 240.14941,106 h -6.35742 V 95.793945 h 6.35742 v 1.777344 h -4.34082 v 2.201172 h 3.93067 v 1.777339 h -3.93067 v 2.67286 h 4.34082 z m 4.22266,-10.206055 h 2.0166 v 4.033203 l 3.1582,-4.033203 h 2.28321 L 248.61035,99.813477 251.94629,106 h -2.24219 l -2.41992,-4.59375 -0.89551,1.13477 V 106 h -2.0166 z m 14.33984,1.845703 -0.95019,4.176762 h 1.90723 z m -1.23046,-1.845703 h 2.46777 L 262.7041,106 h -2.0166 l -0.62891,-2.52246 H 257.3584 L 256.74316,106 h -2.0166 z M 270.65234,106 h -2.0166 v -8.442383 h -2.59082 v -1.763672 h 7.19824 v 1.763672 h -2.59082 z m 19.75879,-8.510742 v 2.994142 h 0.82715 q 0.99121,0 1.3877,-0.33496 0.40332,-0.334963 0.40332,-1.162112 0,-0.827148 -0.40332,-1.162109 -0.39649,-0.334961 -1.3877,-0.334961 z m -2.0166,-1.695313 h 2.76856 q 2.1123,0 3.03515,0.751953 0.92969,0.751954 0.92969,2.44043 0,1.688472 -0.92969,2.440432 -0.92285,0.75195 -3.03515,0.75195 h -0.75196 V 106 h -2.0166 z m 15.33789,5.386715 q 0.30078,0.0615 0.51953,0.28711 0.22559,0.21875 0.54688,0.86133 l 1.8457,3.6709 h -2.21484 l -1.23047,-2.57715 q -0.0547,-0.10937 -0.14356,-0.30078 -0.54004,-1.15527 -1.27148,-1.15527 H 301.1416 V 106 H 299.125 V 95.793945 h 2.91211 q 1.96875,0 2.82324,0.697266 0.86133,0.697266 0.86133,2.269531 0,1.052735 -0.5127,1.674808 -0.51269,0.62207 -1.47656,0.74511 z m -2.59082,-3.691402 v 2.782222 h 0.9502 q 0.82715,0 1.18261,-0.321285 0.36231,-0.328125 0.36231,-1.073242 0,-0.745117 -0.35547,-1.066406 -0.35547,-0.321289 -1.18945,-0.321289 z m 12.21387,-0.06836 q -0.77246,0 -1.12793,0.827149 -0.35547,0.820312 -0.35547,2.659183 0,1.83203 0.35547,2.65918 0.35547,0.82031 1.12793,0.82031 0.7793,0 1.13476,-0.82031 0.35547,-0.82715 0.35547,-2.65918 0,-1.838871 -0.35547,-2.659183 -0.35546,-0.827149 -1.13476,-0.827149 z m -3.58203,3.486332 q 0,-2.618168 0.90234,-3.958011 0.90918,-1.339844 2.67969,-1.339844 1.77734,0 2.67969,1.339844 0.90918,1.339843 0.90918,3.958011 0,2.61132 -0.90918,3.95117 -0.90235,1.33984 -2.67969,1.33984 -1.77051,0 -2.67969,-1.33984 -0.90234,-1.33985 -0.90234,-3.95117 z m 11.04492,4.58691 v -2.33789 q 0.58789,0.60156 1.25098,0.91602 0.66992,0.31445 1.34668,0.31445 0.79296,0 1.1621,-0.39649 0.36915,-0.39648 0.36915,-1.26464 v -5.154301 h -2.46778 v -1.777344 h 4.48438 v 6.931645 q 0,1.86621 -0.78614,2.67285 -0.77929,0.7998 -2.57714,0.7998 -0.64942,0 -1.36036,-0.17773 -0.7041,-0.17774 -1.42187,-0.52637 z M 338.50781,106 h -6.35742 V 95.793945 h 6.35742 v 1.777344 h -4.34082 v 2.201172 h 3.93067 v 1.777339 h -3.93067 v 2.67286 h 4.34082 z m 10.8125,-0.29395 q -0.47851,0.2461 -1.00488,0.36915 -0.52637,0.12304 -1.10742,0.12304 -2.06446,0 -3.15137,-1.36035 -1.08691,-1.36035 -1.08691,-3.93066 0,-2.577152 1.08691,-3.937503 1.08691,-1.360352 3.15137,-1.360352 0.58105,0 1.11426,0.123047 0.5332,0.123047 0.99804,0.36914 v 2.242188 q -0.51953,-0.478516 -1.01172,-0.697266 -0.48535,-0.225586 -1.00488,-0.225586 -1.10742,0 -1.6748,0.881836 -0.56055,0.875 -0.56055,2.604496 0,1.72265 0.56055,2.60449 0.56738,0.875 1.6748,0.875 0.51953,0 1.00488,-0.21875 0.49219,-0.22559 1.01172,-0.7041 z M 358.08203,106 h -2.0166 v -8.442383 h -2.59082 v -1.763672 h 7.19824 v 1.763672 h -2.59082 z"
     id="text3"
     style="font-weight:700;font-size:14px;font-family:Menlo, 'SF Mono', 'JetBrains Mono', 'Fira Code', 'Cascadia Code', monospace;letter-spacing:2.5;fill:#777777"
     aria-label="A WAVEKAT PROJECT" />
</svg>
