<?xml version="1.0" encoding="UTF-8" standalone="no"?>
<svg
   viewBox="0 0 288 72"
   width="288"
   height="72"
   version="1.1"
   id="svg1"
   xmlns="http://www.w3.org/2000/svg"
   xmlns:svg="http://www.w3.org/2000/svg">
  <defs
     id="defs1" />
  <!-- Background -->
  <path
     id="rect1"
     d="M 0,0 H 288 V 72 H 0 Z" />
  <!-- Name -->
  <path
     d="m 56,23.03125 h 5.003906 l 2.727539,17.595703 2.481446,-11.586914 h 4.860351 l 2.44043,11.586914 2.768555,-17.595703 h 5.003906 L 77.123047,46 H 71.421875 L 68.632812,34.064453 65.864258,46 h -5.701172 z m 39.141602,12.181641 q -3.363282,0 -4.69629,0.861328 -1.333007,0.861328 -1.333007,2.953125 0,1.558593 0.922851,2.481445 0.922852,0.922852 2.501953,0.922852 2.378907,0 3.691407,-1.78418 1.3125,-1.804688 1.3125,-5.024414 v -0.410156 z m 8.367188,-2.317383 V 46 h -5.967774 v -2.563477 q -1.086914,1.517579 -2.789063,2.337891 -1.702148,0.820313 -3.75293,0.820313 -3.916992,0 -6.111328,-2.07129 -2.173828,-2.071289 -2.173828,-5.783203 0,-4.019531 2.604492,-5.926757 2.604493,-1.927735 8.059571,-1.927735 h 4.163086 v -1.004883 q 0,-1.456054 -1.066407,-2.194336 -1.045898,-0.758789 -3.096679,-0.758789 -2.153321,0 -4.183594,0.553711 -2.009766,0.533203 -4.204102,1.722657 v -5.126954 q 1.989258,-0.820312 4.040039,-1.209961 2.050782,-0.389648 4.347657,-0.389648 5.598632,0 7.85449,2.276367 2.27637,2.276367 2.27637,8.141602 z M 129.21777,23.03125 121.91699,46 h -7.40332 l -7.30078,-22.96875 h 6.09082 l 4.90137,17.923828 4.92187,-17.923828 z m 23.74024,21.84082 q -2.0918,0.861328 -4.26563,1.291992 -2.17383,0.430665 -4.59375,0.430665 -5.76269,0 -8.81836,-3.076172 -3.03515,-3.09668 -3.03515,-8.900391 0,-5.619141 2.93261,-8.879883 2.93262,-3.260742 7.99805,-3.260742 5.10645,0 7.91602,3.035156 2.83007,3.014649 2.83007,8.510742 v 2.44043 h -15.56542 q 0.0205,2.707031 1.5996,4.040039 1.57911,1.333008 4.7168,1.333008 2.07129,0 4.08106,-0.594727 2.00976,-0.594726 4.2041,-1.886718 z m -5.08594,-12.919922 q -0.041,-2.378906 -1.23047,-3.588867 -1.16894,-1.230469 -3.46582,-1.230469 -2.07129,0 -3.30176,1.271485 -1.23047,1.250976 -1.45605,3.568359 z m 10.84082,-17.862304 h 6.00879 v 16.754883 l 7.21875,-7.813477 h 7.28027 L 170.52539,31.603516 179.71289,46 h -6.64453 l -6.2959,-10.746094 -2.05078,1.96875 V 46 h -6.00879 z m 35.57324,21.123047 q -3.36328,0 -4.69629,0.861328 -1.333,0.861328 -1.333,2.953125 0,1.558593 0.92285,2.481445 0.92285,0.922852 2.50195,0.922852 2.37891,0 3.69141,-1.78418 1.3125,-1.804688 1.3125,-5.024414 v -0.410156 z m 8.36719,-2.317383 V 46 h -5.96777 v -2.563477 q -1.08692,1.517579 -2.78907,2.337891 -1.70214,0.820313 -3.75293,0.820313 -3.91699,0 -6.11132,-2.07129 -2.17383,-2.071289 -2.17383,-5.783203 0,-4.019531 2.60449,-5.926757 2.60449,-1.927735 8.05957,-1.927735 h 4.16309 v -1.004883 q 0,-1.456054 -1.06641,-2.194336 -1.0459,-0.758789 -3.09668,-0.758789 -2.15332,0 -4.18359,0.553711 -2.00977,0.533203 -4.2041,1.722657 v -5.126954 q 1.98925,-0.820312 4.04003,-1.209961 2.05079,-0.389648 4.34766,-0.389648 5.59863,0 7.85449,2.276367 2.27637,2.276367 2.27637,8.141602 z m 16.21387,-16.385742 v 6.521484 h 7.85449 v 4.614258 h -7.85449 v 10.86914 q 0,1.538086 0.73828,2.214844 0.75879,0.65625 2.50195,0.65625 h 4.61426 V 46 h -5.04492 q -5.16797,0 -6.99317,-1.640625 -1.82519,-1.661133 -1.82519,-6.131836 V 27.645508 h -5.86524 V 23.03125 h 5.86524 v -6.521484 z"
     id="text1"
     style="font-weight:700;font-size:42px;font-family:Menlo, 'SF Mono', 'JetBrains Mono', 'Fira Code', 'Cascadia Code', monospace;letter-spacing:-0.5;fill:#ffffff"
     aria-label="wavekat" />
  <!-- Signature ribbon -->
  <path
     d="M 54 52     C 68 47, 93 57, 132 50     C 163 44, 188 56, 216 49     C 222 46, 225 50, 227 48     L 226 51     C 224 53, 221 49, 215 53     C 187 60, 162 48, 131 54     C 92 61, 67 51, 56 56     Z"
     fill="#777777"
     id="path1" />
</svg>
